<svg width="63" height="24" viewBox="0 0 63 24" fill="none" xmlns="http://www.w3.org/2000/svg">
<g clip-path="url(#clip0_42_999)">
<path d="M15.6219 4.4902C15.0379 5.19772 14.0496 5.72556 13.2635 5.72556C13.1736 5.72556 13.0838 5.71432 13.0276 5.70309C13.0164 5.65817 12.9939 5.52341 12.9939 5.38864C12.9939 4.4902 13.4544 3.59177 13.9485 3.03024C14.5774 2.28903 15.6331 1.73874 16.5091 1.70505C16.5315 1.80612 16.5428 1.92966 16.5428 2.05319C16.5428 2.95163 16.1609 3.83884 15.6219 4.4902ZM16.2396 5.91647C16.7337 5.91647 18.5193 5.9614 19.6873 7.64597C19.5862 7.72458 17.8118 8.72409 17.8118 10.959C17.8118 13.542 20.0691 14.4629 20.1365 14.4853C20.1253 14.5415 19.7772 15.7319 18.9461 16.956C18.2049 18.0229 17.4188 19.101 16.2396 19.101C15.0491 19.101 14.7459 18.4048 13.387 18.4048C12.0506 18.4048 11.5789 19.1235 10.5008 19.1235C9.41143 19.1235 8.65899 18.124 7.79424 16.9111C6.7835 15.4736 5.97491 13.25 5.97491 11.1386C5.97491 7.75827 8.17608 5.9614 10.3436 5.9614C11.4891 5.9614 12.4437 6.71384 13.1736 6.71384C13.8587 6.71384 14.9256 5.91647 16.2396 5.91647ZM21.6985 19V2.7944H28.1673C31.4578 2.7944 33.6814 4.96188 33.6814 8.20749V8.22995C33.6814 11.4643 31.4578 13.643 28.1673 13.643H24.596V19H21.6985ZM27.4597 5.16403H24.596V11.3071H27.4597C29.5374 11.3071 30.7503 10.1841 30.7503 8.24118V8.21872C30.7503 6.27585 29.5374 5.16403 27.4597 5.16403ZM38.2644 19.2021C35.9284 19.2021 34.2326 17.7646 34.2326 15.5298V15.5073C34.2326 13.3174 35.906 12.0371 38.8933 11.8574L42.0491 11.6665V10.6108C42.0491 9.38669 41.2517 8.71286 39.7468 8.71286C38.4665 8.71286 37.6355 9.17331 37.3547 9.9819L37.3435 10.0268H34.7043L34.7156 9.92575C34.9851 7.85934 36.9616 6.48923 39.8816 6.48923C43.0373 6.48923 44.8117 8.01657 44.8117 10.6108V19H42.0491V17.3154H41.8581C41.1843 18.5058 39.8816 19.2021 38.2644 19.2021ZM36.9953 15.395C36.9953 16.4394 37.8825 17.0571 39.1179 17.0571C40.8025 17.0571 42.0491 15.9565 42.0491 14.4966V13.5083L39.2864 13.688C37.7253 13.789 36.9953 14.3618 36.9953 15.3725V15.395ZM47.8786 23.3125C47.5417 23.3125 47.1486 23.3012 46.8117 23.2675V21.1225C47.0363 21.145 47.3508 21.1562 47.6428 21.1562C48.7883 21.1562 49.4733 20.6845 49.7766 19.5727L49.9226 19.0112L45.5314 6.72507H48.5861L51.4499 16.3159H51.6633L54.5158 6.72507H57.4582L53.0559 19.2583C52.0002 22.3354 50.5964 23.3125 47.8786 23.3125Z" fill="white"/>
</g>
<defs>
<clipPath id="clip0_42_999">
<rect width="61.5836" height="24" fill="white" transform="translate(0.708252 -3.05176e-05)"/>
</clipPath>
</defs>
</svg>
