<svg width="58" height="38" viewBox="0 0 58 38" fill="none" xmlns="http://www.w3.org/2000/svg">
<path d="M28.6852 17.1413C28.2792 17.1413 27.9311 17.4741 27.9311 17.8623V23.2419C27.9311 23.6301 28.2792 23.9628 28.6852 23.9628C29.0913 23.9628 29.4393 23.6301 29.4393 23.2419V17.8623C29.4973 17.4741 29.1493 17.1413 28.6852 17.1413ZM28.6852 14.4792C28.2212 14.4792 27.8151 14.8675 27.8151 15.3111C27.8151 15.7548 28.2212 16.143 28.6852 16.143C29.1493 16.143 29.5553 15.7548 29.5553 15.3111C29.5553 14.812 29.2073 14.4792 28.6852 14.4792ZM36.1681 17.8623C36.1681 17.4186 35.7621 17.2522 35.472 17.2522H31.7016C31.3535 17.2522 31.0055 17.5295 31.0055 17.8623C31.0055 18.195 31.2955 18.5278 31.7016 18.5278H34.1959L31.0055 22.7982C30.8895 22.9091 30.8315 23.0755 30.8315 23.2419C30.8315 23.6855 31.2375 23.9628 31.5276 23.9628H35.53C35.8781 23.9628 36.1681 23.6855 36.1681 23.2973C36.1681 22.9646 35.8781 22.6318 35.53 22.6318H32.8037L35.9361 18.4723C36.1101 18.195 36.1681 18.0287 36.1681 17.8623ZM25.0308 21.2453C25.0308 22.1327 24.6247 22.6873 23.6966 22.6873C22.7685 22.6873 22.3625 22.1327 22.3625 21.2453V18.4723H23.7546C24.8568 18.4723 25.0308 19.0824 25.0308 19.6924V21.2453V21.2453ZM26.539 19.6924C26.539 18.195 25.7269 17.1968 23.7546 17.1968H22.3625V15.2002C22.3625 14.812 22.0144 14.4792 21.6084 14.4792C21.2023 14.4792 20.8543 14.812 20.8543 15.2002V21.2453C20.8543 22.7427 21.7244 23.9628 23.6966 23.9628C25.6689 23.9628 26.539 22.7427 26.539 21.2453V19.6924ZM42.0848 17.1413C41.6788 17.1413 41.3307 17.4741 41.3307 17.8623V21.2453C41.3307 22.1327 40.9247 22.6873 39.9966 22.6873C39.0685 22.6873 38.6624 22.1327 38.6624 21.2453V17.8623C38.6624 17.4741 38.3144 17.1413 37.9083 17.1413C37.5023 17.1413 37.1542 17.4741 37.1542 17.8623V21.2453C37.1542 22.7427 38.0243 23.9628 39.9966 23.9628C41.9688 23.9628 42.8389 22.7427 42.8389 21.2453V17.8623C42.8389 17.4741 42.4909 17.1413 42.0848 17.1413ZM53.6282 19.8588C53.6282 18.3614 52.9321 17.1413 50.9019 17.1413C50.0318 17.1413 49.3937 17.4186 48.9296 17.8068C48.5236 17.3631 47.8855 17.1413 47.0154 17.1413C45.0432 17.1413 44.2891 18.3614 44.2891 19.8588V23.2419C44.2891 23.6301 44.6371 23.9628 45.0432 23.9628C45.4492 23.9628 45.7973 23.6301 45.7973 23.2419V19.8588C45.7973 18.9715 46.0873 18.4169 47.0154 18.4169C47.9435 18.4169 48.2336 18.9715 48.2336 19.8588V23.2419C48.2336 23.6301 48.5816 23.9628 48.9876 23.9628C49.3937 23.9628 49.7417 23.6301 49.7417 23.2419V19.8588C49.7417 18.9715 50.0318 18.4169 50.9599 18.4169C51.888 18.4169 52.178 18.9715 52.178 19.8588V23.2419C52.178 23.6301 52.5261 23.9628 52.9321 23.9628C53.3382 23.9628 53.6862 23.6301 53.6862 23.2419L53.6282 19.8588ZM6.99064 17.1413C7.51271 17.5295 8.2668 17.4186 8.67284 16.864L10.065 15.0338C10.4711 14.5347 10.355 13.8137 9.77497 13.4255C9.25291 13.0927 8.55683 13.2037 8.15078 13.7028L6.75862 15.533C6.35257 16.0876 6.46858 16.7531 6.99064 17.1413ZM13.4294 14.5347C12.9073 14.1465 12.1533 14.2574 11.7472 14.812L6.12054 22.1881C5.7725 22.6873 5.88851 23.4082 6.41057 23.7965C6.93264 24.1847 7.68673 24.0738 8.09277 23.5192L13.7194 16.143C14.0675 15.6439 13.9515 14.9229 13.4294 14.5347ZM6.46858 13.9801C6.87463 13.481 6.75862 12.76 6.17855 12.3718C5.65648 11.9836 4.9604 12.0945 4.55435 12.5936C4.14831 13.0927 4.26432 13.8137 4.84439 14.2019C5.36645 14.5902 6.12054 14.4792 6.46858 13.9801ZM14.9956 24.1292C14.4735 23.741 13.7194 23.8519 13.3134 24.4065C12.9073 24.9056 13.0234 25.6266 13.6034 26.0148C14.1255 26.4031 14.8796 26.2921 15.2856 25.7375C15.6337 25.1829 15.5177 24.462 14.9956 24.1292ZM12.7913 21.1899C12.2693 20.8016 11.5152 20.9126 11.1091 21.4671L9.71697 23.2419C9.31092 23.741 9.42693 24.462 10.007 24.8502C10.5291 25.2384 11.2832 25.1275 11.6892 24.5729L13.0814 22.7427C13.4294 22.2436 13.3134 21.5226 12.7913 21.1899Z" fill="black"/>
</svg>
