<svg width="20" height="16" viewBox="0 0 20 16" fill="none" xmlns="http://www.w3.org/2000/svg">
<g clip-path="url(#clip0_2_5163)">
<rect y="0.857147" width="20" height="14.2857" rx="2.14286" fill="#01326F"/>
<g clip-path="url(#clip1_2_5163)">
<rect x="-0.714233" y="0.857147" width="21.2625" height="14.2857" rx="2.14286" fill="#F7F7F7"/>
<path d="M0.863299 0.857117H9.6488C10.8752 0.857117 11.6379 1.63389 11.3519 2.59005L7.26157 16.2365C6.97291 17.1893 5.74504 17.9668 4.5178 17.9668H-4.26684C-5.49151 17.9668 -6.25598 17.1893 -5.96989 16.2365L-1.8779 2.59005C-1.59181 1.63389 -0.364577 0.857117 0.863299 0.857117Z" fill="#E21836"/>
<path d="M9.04791 0.857117H17.2701C18.268 0.857117 17.818 1.63389 17.5833 2.59005L14.255 16.2365C14.0215 17.1893 14.0943 17.9668 13.0943 17.9668H4.87216C3.87219 17.9668 3.25334 17.1893 3.48826 16.2365L6.81635 2.59005C7.05266 1.63389 8.04933 0.857117 9.04791 0.857117Z" fill="#00447C"/>
<path d="M16.5364 0.857117H23.3361C24.2866 0.857117 24.877 1.63078 24.6537 2.58311L21.4885 16.1749C21.2651 17.1239 20.3141 17.8982 19.3637 17.8982H12.5672C11.6162 17.8982 11.0263 17.1239 11.2491 16.1749L14.4148 2.58311C14.6362 1.63078 15.5854 0.857117 16.5364 0.857117Z" fill="#007B84"/>
<path d="M4.86591 4.69508C4.36138 4.70022 4.21238 4.69508 4.16478 4.68384C4.14649 4.77078 3.80603 6.34129 3.80507 6.34261C3.73176 6.66035 3.67843 6.88684 3.49726 7.03309C3.39441 7.11812 3.27435 7.15914 3.13515 7.15914C2.91141 7.15914 2.78106 7.04804 2.75918 6.83733L2.75499 6.76498C2.75499 6.76498 2.82315 6.33938 2.82315 6.33699C2.82315 6.33699 3.18048 4.90579 3.24445 4.71661C3.2478 4.70584 3.24876 4.70022 3.2496 4.69508C2.55409 4.70118 2.43079 4.69508 2.4223 4.68384C2.41764 4.69927 2.40042 4.788 2.40042 4.788L2.03556 6.40109L2.00423 6.53789L1.9436 6.98538C1.9436 7.11812 1.96967 7.22646 2.02157 7.31807C2.1878 7.60854 2.66195 7.65207 2.93018 7.65207C3.27578 7.65207 3.59998 7.57864 3.81906 7.44459C4.19934 7.21989 4.29884 6.86866 4.38757 6.55655L4.42871 6.39642C4.42871 6.39642 4.79679 4.90998 4.85933 4.71661C4.86173 4.70584 4.86268 4.70022 4.86591 4.69508ZM6.11829 5.89421C6.02956 5.89421 5.8674 5.91574 5.72175 5.98713C5.66889 6.01427 5.61891 6.04561 5.56617 6.07682L5.61376 5.90497L5.58769 5.87603C5.2788 5.93858 5.20968 5.94695 4.92435 5.98713L4.90044 6.00303C4.86731 6.27772 4.83789 6.48425 4.71508 7.02417C4.66832 7.22316 4.61977 7.42407 4.5711 7.62258L4.58425 7.64781C4.87664 7.63238 4.96537 7.63238 5.21949 7.63657L5.24006 7.61421C5.27235 7.44882 5.27653 7.41008 5.34804 7.07512C5.38165 6.91631 5.45172 6.56736 5.48628 6.44311C5.54978 6.41369 5.61245 6.38475 5.67224 6.38475C5.81467 6.38475 5.79733 6.509 5.79183 6.55851C5.78573 6.64162 5.73383 6.91308 5.68061 7.14615L5.64509 7.29659C5.62034 7.40768 5.59319 7.51567 5.56844 7.62581L5.5792 7.64781C5.8674 7.63238 5.9553 7.63238 6.20141 7.63657L6.23035 7.61421C6.27483 7.3559 6.28787 7.28678 6.36679 6.91069L6.40649 6.73789C6.48363 6.3997 6.52237 6.22821 6.46402 6.08854C6.40231 5.932 6.25426 5.89421 6.11829 5.89421ZM7.51735 6.24829C7.36416 6.27771 7.26646 6.29732 7.16935 6.31C7.07309 6.32542 6.97921 6.33942 6.83117 6.35998L6.81945 6.37063L6.80868 6.37912C6.79326 6.48938 6.7825 6.58469 6.76205 6.69674C6.74471 6.81262 6.71804 6.94428 6.67463 7.13346C6.64103 7.27828 6.62369 7.32875 6.60455 7.37969C6.5859 7.43063 6.56533 7.48014 6.52754 7.62257L6.53639 7.63572L6.5438 7.6478C6.68216 7.64122 6.77269 7.63656 6.86573 7.63572C6.95864 7.63237 7.05491 7.63572 7.20391 7.63656L7.21695 7.62592L7.23094 7.6142C7.25247 7.48576 7.25569 7.4512 7.26885 7.38854C7.28188 7.32133 7.30437 7.22829 7.35949 6.9798C7.38556 6.86308 7.41462 6.74672 7.44165 6.62762C7.46975 6.50899 7.49917 6.39215 7.52715 6.27544L7.52297 6.26133L7.51735 6.24829ZM7.52061 5.77088C7.38141 5.68873 7.1371 5.7148 6.97267 5.82828C6.80872 5.9395 6.79007 6.09735 6.92878 6.18058C7.06559 6.26047 7.31086 6.23667 7.47385 6.12222C7.63745 6.00862 7.6579 5.8522 7.52061 5.77088ZM8.36243 7.67355C8.64406 7.67355 8.93274 7.59593 9.15002 7.36561C9.3172 7.17882 9.39386 6.9009 9.42041 6.78646C9.50687 6.40714 9.43954 6.23003 9.35499 6.12216C9.22656 5.95773 8.99959 5.905 8.76412 5.905C8.62253 5.905 8.2853 5.91899 8.02185 6.16187C7.83267 6.33706 7.74525 6.5748 7.69252 6.80272C7.6393 7.03496 7.57807 7.45303 7.96254 7.60861C8.08117 7.65955 8.25218 7.67355 8.36243 7.67355ZM8.34043 6.82006C8.40536 6.53282 8.48202 6.29174 8.67766 6.29174C8.83097 6.29174 8.84209 6.47111 8.77393 6.75932C8.76173 6.82329 8.70576 7.06115 8.63006 7.16244C8.57721 7.23718 8.51467 7.2825 8.44555 7.2825C8.42498 7.2825 8.30264 7.2825 8.30073 7.10085C8.29977 7.01116 8.31807 6.91956 8.34043 6.82006ZM10.1244 7.63661L10.1464 7.61424C10.1776 7.44886 10.1828 7.40999 10.2519 7.07515C10.2864 6.91634 10.358 6.56739 10.3916 6.44314C10.4552 6.41361 10.5168 6.38467 10.5785 6.38467C10.7199 6.38467 10.7027 6.50892 10.6971 6.55842C10.692 6.64166 10.6401 6.913 10.5859 7.14607L10.5523 7.2965C10.5266 7.40772 10.4986 7.51559 10.4738 7.62584L10.4846 7.64785C10.7738 7.63242 10.8583 7.63242 11.1058 7.63661L11.1357 7.61424C11.1791 7.35582 11.1909 7.2867 11.2722 6.91072L11.3109 6.7378C11.3884 6.39961 11.4276 6.22825 11.3702 6.08857C11.3067 5.93204 11.1577 5.89425 11.0237 5.89425C10.9348 5.89425 10.7718 5.91565 10.627 5.98716C10.5752 6.01431 10.5233 6.04552 10.4724 6.07685L10.5168 5.90501L10.493 5.87595C10.1842 5.93861 10.1136 5.94698 9.82867 5.98716L9.80679 6.00307C9.77223 6.27776 9.74412 6.48416 9.62131 7.02421C9.57455 7.2232 9.526 7.4241 9.47745 7.62261L9.49048 7.64785C9.78335 7.63242 9.87077 7.63242 10.1244 7.63661ZM12.2489 7.64779C12.2671 7.55905 12.3751 7.03312 12.376 7.03312C12.376 7.03312 12.468 6.64722 12.4736 6.63322C12.4736 6.63322 12.5025 6.59304 12.5315 6.57714H12.5741C12.9757 6.57714 13.4293 6.57714 13.7849 6.31561C14.0268 6.13623 14.1922 5.87135 14.2659 5.54942C14.2851 5.4705 14.2992 5.37662 14.2992 5.28275C14.2992 5.15945 14.2744 5.03748 14.2029 4.94217C14.0216 4.68853 13.6606 4.68386 13.2438 4.68195C13.2425 4.68195 13.0384 4.68386 13.0384 4.68386C12.5049 4.69044 12.291 4.68853 12.2031 4.67776C12.1957 4.71663 12.1817 4.78575 12.1817 4.78575C12.1817 4.78575 11.9906 5.6714 11.9906 5.67283C11.9906 5.67283 11.5333 7.55583 11.5118 7.64456C11.9776 7.63894 12.1685 7.63894 12.2489 7.64779ZM12.603 6.07452C12.603 6.07452 12.8062 5.19067 12.8052 5.19401L12.8118 5.14869L12.8147 5.11413L12.8959 5.1225C12.8959 5.1225 13.3149 5.1585 13.3247 5.15945C13.4901 5.22343 13.5582 5.38834 13.5106 5.60359C13.4672 5.80031 13.3396 5.9657 13.1757 6.04558C13.0407 6.11327 12.8753 6.11889 12.7049 6.11889H12.5946L12.603 6.07452ZM13.868 6.83644C13.8143 7.06532 13.7526 7.48339 14.1352 7.6324C14.2571 7.6843 14.3664 7.69972 14.4775 7.6941C14.5949 7.68776 14.7036 7.62893 14.8042 7.54426C14.7952 7.57906 14.7861 7.61386 14.777 7.64878L14.7943 7.67114C15.0695 7.65954 15.1549 7.65954 15.453 7.66181L15.48 7.64125C15.5236 7.38533 15.5646 7.13683 15.6777 6.64725C15.7328 6.41274 15.7878 6.18051 15.8444 5.94696L15.8356 5.92125C15.5277 5.97829 15.4455 5.99049 15.1494 6.03246L15.1269 6.05076C15.1239 6.07456 15.1208 6.0974 15.1179 6.12024C15.0719 6.04586 15.0052 5.98236 14.9022 5.94277C14.7705 5.89099 14.4613 5.95772 14.1954 6.19976C14.0086 6.37256 13.919 6.60934 13.868 6.83644ZM14.5145 6.85043C14.5804 6.56833 14.6561 6.32963 14.8522 6.32963C14.9762 6.32963 15.0415 6.44408 15.0282 6.63924C15.0177 6.68791 15.0063 6.73921 14.9928 6.79721C14.9732 6.88104 14.9519 6.96415 14.9312 7.04738C14.9102 7.10431 14.8857 7.158 14.8588 7.19376C14.8083 7.26527 14.6882 7.30964 14.6191 7.30964C14.5995 7.30964 14.4785 7.30964 14.4743 7.13121C14.4734 7.04236 14.4917 6.95088 14.5145 6.85043ZM17.8904 5.91897L17.8667 5.89182C17.5621 5.95353 17.5069 5.96333 17.2271 6.00112L17.2065 6.02169C17.2056 6.02504 17.2047 6.03018 17.2033 6.03484L17.2024 6.03018C16.994 6.51079 17.0001 6.40711 16.8306 6.78548C16.8296 6.76826 16.8296 6.7575 16.8286 6.7392L16.7862 5.91897L16.7595 5.89182C16.4405 5.95353 16.4329 5.96333 16.1383 6.00112L16.1153 6.02169C16.1121 6.03149 16.1121 6.04226 16.1102 6.05398L16.1121 6.05816C16.1489 6.24639 16.1401 6.20442 16.177 6.50147C16.1942 6.64724 16.2172 6.79385 16.2344 6.93783C16.2635 7.1788 16.2798 7.29743 16.3153 7.66515C16.1163 7.99353 16.0692 8.11778 15.8776 8.40598L15.8789 8.40885L15.744 8.62219C15.7286 8.64467 15.7146 8.6601 15.695 8.66668C15.6735 8.67732 15.6455 8.67923 15.6066 8.67923H15.5319L15.4208 9.04875L15.8019 9.05533C16.0256 9.05437 16.1663 8.94974 16.242 8.8091L16.4816 8.39845H16.4778L16.503 8.36951C16.6642 8.02247 17.8904 5.91897 17.8904 5.91897ZM13.868 10.772H13.7063L14.3047 8.79278H14.5032L14.5663 8.58889L14.5724 8.81562C14.5649 8.95578 14.6752 9.08003 14.9648 9.05946H15.2998L15.4151 8.67834H15.289C15.2166 8.67834 15.183 8.66004 15.1871 8.62082L15.181 8.39014H14.5608V8.39133C14.3602 8.39552 13.7613 8.41059 13.6401 8.44287C13.4933 8.48066 13.3387 8.59188 13.3387 8.59188L13.3995 8.38775H12.8192L12.6983 8.79278L12.0919 10.8023H11.9742L11.8588 11.1807H13.0145L12.9758 11.3068H13.5452L13.583 11.1807H13.7428L13.868 10.772ZM13.3938 9.19495C13.3009 9.22066 13.128 9.29863 13.128 9.29863L13.2818 8.79278H13.7428L13.6316 9.16134C13.6316 9.16134 13.4892 9.16971 13.3938 9.19495ZM13.4027 9.9176C13.4027 9.9176 13.2579 9.93578 13.1626 9.9573C13.0687 9.98577 12.8927 10.0755 12.8927 10.0755L13.0515 9.54904H13.5149L13.4027 9.9176ZM13.1444 10.7767H12.682L12.816 10.3324H13.277L13.1444 10.7767ZM14.258 9.54904H14.9246L14.8288 9.85924H14.1534L14.052 10.1984H14.643L14.1955 10.8285C14.1642 10.8748 14.1361 10.8911 14.1049 10.9042C14.0735 10.9201 14.0324 10.9387 13.9848 10.9387H13.8208L13.7082 11.3102H14.137C14.3599 11.3102 14.4916 11.2088 14.5888 11.0757L14.8957 10.6557L14.9616 11.0821C14.9756 11.162 15.033 11.2088 15.0718 11.2269C15.1148 11.2485 15.1591 11.2854 15.2218 11.2909C15.289 11.2938 15.3375 11.2961 15.3698 11.2961H15.5805L15.7071 10.8804H15.6239C15.5762 10.8804 15.4941 10.8724 15.4801 10.8574C15.4661 10.8392 15.4661 10.8113 15.4586 10.7687L15.3917 10.3413H15.118L15.238 10.1984H15.9121L16.0158 9.85924H15.3917L15.4889 9.54904H16.1111L16.2265 9.16649H14.3715L14.258 9.54904ZM8.62818 10.8631L8.78376 10.3455H9.42318L9.54002 9.96057H8.89999L8.99769 9.64199H9.62313L9.73901 9.26925H8.17411L8.06062 9.64199H8.41615L8.32132 9.96057H7.96484L7.84669 10.3521H8.20209L7.99473 11.0368C7.96675 11.1275 8.00789 11.162 8.03396 11.2041C8.06062 11.2452 8.08765 11.2723 8.1484 11.2877C8.21106 11.3017 8.25399 11.3101 8.31235 11.3101H9.03321L9.16165 10.8836L8.84211 10.9275C8.78041 10.9275 8.60952 10.9201 8.62818 10.8631ZM8.70152 8.38541L8.53948 8.67828C8.5048 8.74226 8.47359 8.78196 8.44549 8.80026C8.42073 8.81568 8.3717 8.82214 8.30067 8.82214H8.21612L8.10311 9.1968H8.3839C8.51891 9.1968 8.62259 9.14729 8.6721 9.12254C8.72532 9.09408 8.73931 9.11034 8.78044 9.07064L8.87527 8.98848H9.75208L9.86843 8.5984H9.22662L9.33867 8.38541H8.70152ZM9.99596 10.8706C9.98101 10.8491 9.99177 10.8112 10.0146 10.7322L10.2543 9.93903H11.1068C11.231 9.93724 11.3207 9.9358 11.3791 9.93162C11.4417 9.92504 11.5099 9.90268 11.5842 9.8625C11.6608 9.8204 11.7001 9.77604 11.7332 9.72509C11.7701 9.67427 11.8294 9.56305 11.8804 9.39157L12.1816 8.38777L11.2969 8.39291C11.2969 8.39291 11.0245 8.43309 10.9046 8.47746C10.7835 8.52697 10.6106 8.66521 10.6106 8.66521L10.6905 8.39004H10.144L9.3789 10.9275C9.35175 11.0261 9.33357 11.0976 9.32939 11.1405C9.32795 11.1868 9.38775 11.2326 9.42649 11.2671C9.47229 11.3017 9.53998 11.2961 9.60491 11.3017C9.6732 11.3068 9.7703 11.3101 9.90436 11.3101H10.3243L10.4533 10.8748L10.0773 10.9103C10.0371 10.9103 10.008 10.8888 9.99596 10.8706ZM10.4089 9.40329H11.3043L11.2474 9.58171C11.2394 9.5859 11.2203 9.57286 11.1291 9.58362H10.3538L10.4089 9.40329ZM10.5883 8.80488H11.4913L11.4263 9.01978C11.4263 9.01978 11.0007 9.01559 10.9326 9.02815C10.6326 9.08005 10.4574 9.24029 10.4574 9.24029L10.5883 8.80488ZM11.2675 10.1792C11.26 10.2059 11.2483 10.2221 11.2319 10.2343C11.2138 10.246 11.1844 10.2502 11.1405 10.2502H11.0129L11.0204 10.0329H10.4897L10.4682 11.0952C10.4673 11.1719 10.4747 11.2162 10.5308 11.2518C10.5869 11.2961 10.7597 11.3017 10.9923 11.3017H11.3249L11.4449 10.9041L11.1554 10.92L11.0591 10.9256C11.046 10.92 11.0334 10.9149 11.0194 10.9009C11.0072 10.8888 10.9867 10.8962 10.99 10.8196L10.9923 10.5473L11.2959 10.5347C11.4599 10.5347 11.53 10.4814 11.5897 10.4306C11.6468 10.3819 11.6654 10.3259 11.687 10.2502L11.7379 10.0091H11.3207L11.2675 10.1792Z" fill="white"/>
</g>
</g>
<defs>
<clipPath id="clip0_2_5163">
<rect y="0.857147" width="20" height="14.2857" rx="2.14286" fill="white"/>
</clipPath>
<clipPath id="clip1_2_5163">
<rect x="-0.714233" y="0.857147" width="21.2625" height="14.2857" rx="2.14286" fill="white"/>
</clipPath>
</defs>
</svg>
