<svg width="20" height="16" viewBox="0 0 20 16" fill="none" xmlns="http://www.w3.org/2000/svg">
<rect y="0.857147" width="20" height="14.2857" rx="2.14286" fill="#CCECFF"/>
<path d="M10.9328 12.6843C13.3896 12.6963 15.6323 10.685 15.6323 8.23827C15.6323 5.56283 13.3896 3.71353 10.9328 3.71429H8.81849C6.33223 3.71353 4.28577 5.56326 4.28577 8.23827C4.28577 10.6856 6.33223 12.6963 8.81849 12.6843H10.9328Z" fill="#016AAB"/>
<path d="M9.76159 10.6208V5.76242C10.7402 6.13703 11.4349 7.0825 11.4365 8.19144C11.4349 9.30061 10.7402 10.2455 9.76159 10.6208ZM6.22109 8.19144C6.22329 7.08316 6.91689 6.13824 7.89495 5.76253V10.6198C6.91689 10.2444 6.22329 9.30006 6.22109 8.19144ZM8.82844 4.08514C6.55659 4.08591 4.71564 5.92359 4.71509 8.19144C4.71564 10.4591 6.55659 12.2964 8.82844 12.2971C11.1011 12.2964 12.9423 10.4591 12.9427 8.19144C12.9423 5.92359 11.1011 4.08591 8.82844 4.08514Z" fill="white"/>
</svg>
