<svg width="20" height="16" viewBox="0 0 20 16" fill="none" xmlns="http://www.w3.org/2000/svg">
<g clip-path="url(#clip0_2_5160)">
<rect y="0.857147" width="20" height="14.2857" rx="2.14286" fill="#1D71B9"/>
<path fill-rule="evenodd" clip-rule="evenodd" d="M11.9786 12.275V7.73959L20.0507 7.74701V8.99978L19.1176 9.99656L20.0507 11.003V12.2821H18.5611L17.7695 11.4086L16.9834 12.2857L11.9786 12.275Z" fill="white"/>
<path fill-rule="evenodd" clip-rule="evenodd" d="M12.5181 11.7774V8.23859H15.5189V9.05381H13.4899V9.60727H15.4705V10.409H13.4899V10.9526H15.5189V11.7774H12.5181Z" fill="#1D71B9"/>
<path fill-rule="evenodd" clip-rule="evenodd" d="M15.504 11.7775L17.1641 10.0062L15.504 8.23892H16.7889L17.8036 9.3604L18.821 8.23892H20.0509V8.26666L18.426 10.0062L20.0509 11.7275V11.7775H18.8086L17.7761 10.6448L16.7541 11.7775H15.504Z" fill="#1D71B9"/>
<path fill-rule="evenodd" clip-rule="evenodd" d="M12.3554 3.71429H14.3012L14.9846 5.26619V3.71429H17.3868L17.801 4.87698L18.2166 3.71429H20.0509V8.24939H10.3572L12.3554 3.71429Z" fill="white"/>
<path fill-rule="evenodd" clip-rule="evenodd" d="M12.7239 4.20703L11.1536 7.74287H12.2306L12.5266 7.03477H14.1318L14.4279 7.74287H15.5315L13.9678 4.20703H12.7239ZM12.8587 6.24125L13.3295 5.11564L13.8 6.24125H12.8587Z" fill="#1D71B9"/>
<path fill-rule="evenodd" clip-rule="evenodd" d="M15.5172 7.74229V4.20645L17.0309 4.21167L17.8099 6.38542L18.5941 4.20645H20.0509V7.74229L19.1135 7.75053V5.32162L18.2285 7.74229H17.3726L16.4692 5.31338V7.74229H15.5172Z" fill="#1D71B9"/>
</g>
<defs>
<clipPath id="clip0_2_5160">
<rect y="0.857147" width="20" height="14.2857" rx="2.14286" fill="white"/>
</clipPath>
</defs>
</svg>
