<svg width="20" height="16" viewBox="0 0 20 16" fill="none" xmlns="http://www.w3.org/2000/svg">
<rect y="0.857147" width="20" height="14.2857" rx="2.14286" fill="#01326F"/>
<path d="M11.6651 4.48792H7.91553V11.2264H11.6651V4.48792Z" fill="#FF5F00"/>
<path d="M8.15355 7.85793C8.15286 7.20887 8.29986 6.56816 8.58343 5.98432C8.867 5.40048 9.27969 4.88882 9.79027 4.48808C9.15809 3.99126 8.3989 3.68232 7.59945 3.59656C6.8 3.5108 5.99254 3.65169 5.26938 4.00313C4.54621 4.35456 3.93651 4.90236 3.50995 5.58392C3.08339 6.26548 2.85718 7.0533 2.85718 7.85733C2.85718 8.66137 3.08339 9.44919 3.50995 10.1307C3.93651 10.8123 4.54621 11.3601 5.26938 11.7115C5.99254 12.063 6.8 12.2039 7.59945 12.1181C8.3989 12.0324 9.15809 11.7234 9.79027 11.2266C9.27985 10.826 8.86725 10.3145 8.58369 9.73088C8.30013 9.14726 8.15304 8.50679 8.15355 7.85793Z" fill="#EB001B"/>
<path d="M16.7238 7.85772C16.7237 8.66182 16.4975 9.44968 16.0708 10.1313C15.6442 10.8128 15.0344 11.3606 14.3112 11.712C13.5879 12.0634 12.7804 12.2042 11.9809 12.1183C11.1814 12.0324 10.4222 11.7234 9.79004 11.2264C10.3003 10.8254 10.7127 10.3138 10.9964 9.73014C11.28 9.14649 11.4274 8.50604 11.4274 7.85713C11.4274 7.20821 11.28 6.56776 10.9964 5.98411C10.7127 5.40046 10.3003 4.88885 9.79004 4.48787C10.4222 3.9909 11.1814 3.6818 11.9809 3.59592C12.7804 3.51004 13.5879 3.65084 14.3112 4.00223C15.0344 4.35361 15.6442 4.9014 16.0708 5.58298C16.4975 6.26457 16.7237 7.05243 16.7238 7.85653V7.85772Z" fill="#F79E1B"/>
</svg>
