<svg width="20" height="16" viewBox="0 0 20 16" fill="none" xmlns="http://www.w3.org/2000/svg">
<rect y="0.857147" width="20" height="14.2857" rx="2.14286" fill="white"/>
<path d="M12.9048 8.17349C13.2148 8.18023 13.5267 8.1598 13.8355 8.18411C14.1482 8.24245 14.2236 8.71593 13.9458 8.871C13.7562 8.97315 13.531 8.90905 13.3254 8.92706H12.9048V8.17349ZM14.0148 7.32055C14.0837 7.56371 13.8493 7.78203 13.6151 7.74855H12.9048C12.9097 7.51924 12.895 7.27035 12.912 7.05311C13.1965 7.06113 13.4837 7.03677 13.7666 7.06585C13.8882 7.09639 13.9899 7.19632 14.0148 7.32055ZM15.7242 3.71456C15.7375 4.17893 15.7261 4.66785 15.7299 5.14164C15.7291 7.06792 15.7318 8.99414 15.7284 10.9205C15.716 11.6424 15.0762 12.2697 14.3592 12.2841C13.6416 12.2871 12.9239 12.2846 12.2062 12.2854V9.37326C12.9882 9.36923 13.7706 9.38146 14.5522 9.36716C14.9148 9.34439 15.312 9.10513 15.3289 8.70609C15.3716 8.30531 14.9938 8.02811 14.635 7.98433C14.4971 7.98075 14.5011 7.94413 14.635 7.92816C14.9772 7.85421 15.2459 7.50008 15.1452 7.14542C15.0594 6.77241 14.6471 6.62804 14.3042 6.62875C13.605 6.624 12.9056 6.62809 12.2063 6.62671C12.2109 6.08305 12.1969 5.53881 12.2139 4.99555C12.2693 4.28666 12.9252 3.70206 13.632 3.71474C14.3295 3.71464 15.0269 3.71464 15.7242 3.71461V3.71456Z" fill="url(#paint0_linear_2_5162)"/>
<path d="M4.30437 5.06888C4.32222 4.34811 4.96475 3.72596 5.68075 3.71543C6.39571 3.71323 7.11078 3.71511 7.82574 3.71447C7.82378 6.12603 7.82962 8.53786 7.8228 10.9493C7.79525 11.6613 7.15973 12.2716 6.45154 12.2842C5.73522 12.2868 5.01882 12.2846 4.30248 12.2853V9.27498C4.99829 9.43936 5.72795 9.50933 6.43779 9.4003C6.8621 9.33203 7.32634 9.12365 7.47 8.68345C7.57571 8.3069 7.51619 7.91062 7.53193 7.52415V6.62663H6.30348C6.29796 7.22022 6.31478 7.81486 6.29459 8.40773C6.26147 8.77216 5.90058 9.00369 5.55688 8.99133C5.13064 8.99584 4.28598 8.68242 4.28598 8.68242C4.28385 7.57026 4.29834 6.17746 4.30437 5.06899V5.06888Z" fill="url(#paint1_linear_2_5162)"/>
<path d="M8.28384 6.98875C8.21917 7.00247 8.27083 6.76849 8.2543 6.67973C8.25871 6.11853 8.2451 5.55672 8.26181 4.99592C8.31706 4.28404 8.97799 3.69798 9.6877 3.71464H11.7777C11.7758 6.1262 11.7816 8.53802 11.7748 10.9495C11.7472 11.6615 11.1116 12.2717 10.4034 12.2844C9.68709 12.2871 8.97067 12.2848 8.25428 12.2855V8.98728C8.74354 9.38871 9.40851 9.4512 10.018 9.45229C10.4776 9.45213 10.9344 9.38128 11.3806 9.2753V8.67107C10.8777 8.92171 10.2866 9.08091 9.72909 8.93691C9.34021 8.84012 9.05791 8.46429 9.0642 8.06296C9.01915 7.6456 9.26379 7.20497 9.67393 7.0809C10.1831 6.92148 10.7381 7.04341 11.2154 7.25067C11.3177 7.30421 11.4215 7.37063 11.3806 7.19969V6.72476C10.5823 6.53483 9.73275 6.46494 8.93074 6.67156C8.69859 6.73704 8.47241 6.83636 8.28384 6.9888V6.98875Z" fill="url(#paint2_linear_2_5162)"/>
<defs>
<linearGradient id="paint0_linear_2_5162" x1="12.1821" y1="7.81672" x2="15.7077" y2="7.81672" gradientUnits="userSpaceOnUse">
<stop stop-color="#58B03A"/>
<stop offset="1" stop-color="#55B330"/>
</linearGradient>
<linearGradient id="paint1_linear_2_5162" x1="4.22752" y1="8.08195" x2="7.76797" y2="8.08195" gradientUnits="userSpaceOnUse">
<stop stop-color="#0F6EB6"/>
<stop offset="1" stop-color="#006DBA"/>
</linearGradient>
<linearGradient id="paint2_linear_2_5162" x1="8.24911" y1="7.89983" x2="11.7771" y2="7.89983" gradientUnits="userSpaceOnUse">
<stop stop-color="#DE0D3D"/>
<stop offset="1" stop-color="#E30138"/>
</linearGradient>
</defs>
</svg>
