<svg width="20" height="16" viewBox="0 0 20 16" fill="none" xmlns="http://www.w3.org/2000/svg">
<rect y="0.857147" width="20" height="14.2857" rx="2.14286" fill="url(#paint0_linear_2_5158)"/>
<path d="M10.078 7.08444C10.0704 7.68142 10.61 8.01459 11.0165 8.21266C11.4342 8.4159 11.5744 8.54622 11.5729 8.72795C11.5697 9.00611 11.2397 9.12886 10.9308 9.13364C10.392 9.14201 10.0788 8.98818 9.82972 8.87181L9.63564 9.78005C9.88551 9.89522 10.3482 9.99565 10.828 10C11.9542 10 12.6911 9.44409 12.6951 8.58209C12.6995 7.48814 11.1819 7.42757 11.1923 6.93858C11.1959 6.79033 11.3373 6.63211 11.6474 6.59186C11.8008 6.57154 12.2244 6.556 12.7047 6.77718L12.8932 5.89843C12.6349 5.80438 12.3029 5.71432 11.8897 5.71432C10.8296 5.71432 10.084 6.27783 10.078 7.08444ZM14.7045 5.79004C14.4988 5.79004 14.3255 5.90999 14.2481 6.09411L12.6393 9.93547H13.7647L13.9887 9.31656H15.364L15.4939 9.93547H16.4858L15.6203 5.79004H14.7045ZM14.8619 6.90988L15.1867 8.46651H14.2972L14.8619 6.90988ZM8.71345 5.79004L7.82634 9.93547H8.89877L9.78548 5.79004H8.71345ZM7.12693 5.79004L6.01067 8.61158L5.55914 6.21247C5.50614 5.94466 5.29692 5.79004 5.06458 5.79004H3.23974L3.21423 5.91039C3.58885 5.99169 4.01447 6.1228 4.27231 6.26308C4.43013 6.34876 4.47516 6.42369 4.52697 6.62733L5.3822 9.93547H6.5156L8.25316 5.79004H7.12693Z" fill="white"/>
<defs>
<linearGradient id="paint0_linear_2_5158" x1="8.98437" y1="15.1429" x2="13.6013" y2="1.32969" gradientUnits="userSpaceOnUse">
<stop stop-color="#222357"/>
<stop offset="1" stop-color="#254AA5"/>
</linearGradient>
</defs>
</svg>
