<svg width="63" height="24" viewBox="0 0 63 24" fill="none" xmlns="http://www.w3.org/2000/svg">
<path d="M29.4512 11.6725V18.7485H27.1904V1.27484H33.1839C34.7029 1.27484 35.9982 1.77777 37.0579 2.78361C38.1412 3.78946 38.6829 5.01753 38.6829 6.46782C38.6829 7.9532 38.1412 9.18127 37.0579 10.1754C36.01 11.1696 34.7147 11.6608 33.1839 11.6608H29.4512V11.6725ZM29.4512 3.42689V9.52045H33.231C34.1259 9.52045 34.8795 9.21635 35.4683 8.61986C36.0688 8.02337 36.375 7.29823 36.375 6.47951C36.375 5.6725 36.0688 4.95905 35.4683 4.36256C34.8795 3.74268 34.1377 3.43858 33.231 3.43858H29.4512V3.42689Z" fill="white"/>
<path d="M44.594 6.39761C46.266 6.39761 47.5848 6.84206 48.5504 7.73094C49.516 8.61983 49.9987 9.83621 49.9987 11.3801V18.7485H47.8439V17.0877H47.7497C46.8195 18.4561 45.5713 19.1344 44.017 19.1344C42.6864 19.1344 41.5796 18.7485 40.6846 17.9649C39.7897 17.1812 39.3423 16.2105 39.3423 15.0409C39.3423 13.8011 39.8133 12.8187 40.7553 12.0935C41.6973 11.3567 42.9572 10.9941 44.5233 10.9941C45.8657 10.9941 46.9725 11.2397 47.8321 11.7309V11.2163C47.8321 10.4327 47.526 9.77773 46.9019 9.22802C46.2778 8.67831 45.5478 8.40931 44.7117 8.40931C43.4518 8.40931 42.4509 8.93562 41.7209 9.99995L39.7309 8.76018C40.8259 7.18124 42.4509 6.39761 44.594 6.39761ZM41.6738 15.076C41.6738 15.6608 41.921 16.152 42.4274 16.538C42.9219 16.9239 43.5107 17.1227 44.1819 17.1227C45.1356 17.1227 45.9834 16.7719 46.7253 16.0701C47.4671 15.3684 47.8439 14.5497 47.8439 13.6023C47.1374 13.0526 46.1601 12.7719 44.9001 12.7719C43.9817 12.7719 43.2163 12.9941 42.604 13.4268C41.9799 13.883 41.6738 14.4327 41.6738 15.076Z" fill="white"/>
<path d="M62.2919 6.78363L54.7559 24H52.4244L55.2269 17.9766L50.2578 6.78363H52.7188L56.2984 15.3684H56.3455L59.8309 6.78363H62.2919Z" fill="white"/>
<path d="M20.4587 10.2456C20.4587 9.5134 20.3927 8.81281 20.2703 8.13913H10.7937V11.9988L16.2514 11.9999C16.0301 13.2842 15.3177 14.3789 14.2261 15.1087V17.6128H17.4749C19.3718 15.8689 20.4587 13.2912 20.4587 10.2456Z" fill="#4285F4"/>
<path d="M14.2273 15.1088C13.3229 15.7146 12.1584 16.069 10.796 16.069C8.16427 16.069 5.93172 14.3076 5.13219 11.9333H1.78101V14.5158C3.44129 17.7883 6.85371 20.0339 10.796 20.0339C13.5208 20.0339 15.8098 19.1438 17.476 17.6117L14.2273 15.1088Z" fill="#34A853"/>
<path d="M4.81657 10.0176C4.81657 9.3509 4.92843 8.70646 5.13214 8.10061V5.51816H1.78096C1.09447 6.87137 0.708252 8.39886 0.708252 10.0176C0.708252 11.6363 1.09565 13.1638 1.78096 14.517L5.13214 11.9345C4.92843 11.3287 4.81657 10.6842 4.81657 10.0176Z" fill="#FABB05"/>
<path d="M10.796 3.96494C12.2832 3.96494 13.615 4.47371 14.6665 5.46786L17.5455 2.61055C15.7969 0.993013 13.5172 3.05176e-05 10.796 3.05176e-05C6.85488 3.05176e-05 3.44129 2.24564 1.78101 5.51815L5.13219 8.10061C5.93172 5.72634 8.16427 3.96494 10.796 3.96494Z" fill="#E94235"/>
</svg>
