<svg width="57" height="38" viewBox="0 0 57 38" fill="none" xmlns="http://www.w3.org/2000/svg">
<mask id="mask0_42_2823" style="mask-type:alpha" maskUnits="userSpaceOnUse" x="0" y="0" width="57" height="38">
<rect x="0.287354" y="0.383026" width="56.4254" height="37.6169" fill="white"/>
</mask>
<g mask="url(#mask0_42_2823)">
<path fill-rule="evenodd" clip-rule="evenodd" d="M6.31599 24.8514H3.81396V13.3138H6.31599V24.8514ZM12.5625 13.3138H10.1147C10.1147 15.4371 9.19234 17.3858 7.58413 18.6608L6.61437 19.4294L10.3719 24.8519H13.4613L10.0039 19.8623C11.6427 18.1352 12.5625 15.8116 12.5625 13.3138ZM16.5532 24.8487H14.1904V13.3165H16.5532V24.8487ZM23.6922 16.8705V17.3808C23.0547 16.9205 22.2851 16.65 21.4551 16.65C19.2585 16.65 17.4777 18.5346 17.4777 20.8594C17.4777 23.1841 19.2585 25.0687 21.4551 25.0687C22.2851 25.0687 23.0547 24.7982 23.6922 24.338V24.8479H25.9491V16.8705H23.6922ZM23.6854 20.8598C23.6854 21.9933 22.7698 22.9123 21.6404 22.9123C20.5111 22.9123 19.5955 21.9933 19.5955 20.8598C19.5955 19.7263 20.5111 18.8075 21.6404 18.8075C22.7698 18.8075 23.6854 19.7263 23.6854 20.8598ZM47.5014 17.3808V16.8705H49.7581V24.8479H47.5014V24.338C46.8638 24.7982 46.0942 25.0687 45.2642 25.0687C43.0675 25.0687 41.2868 23.1841 41.2868 20.8594C41.2868 18.5346 43.0675 16.65 45.2642 16.65C46.0942 16.65 46.8638 16.9205 47.5014 17.3808ZM45.4494 22.9123C46.5789 22.9123 47.4944 21.9933 47.4944 20.8598C47.4944 19.7263 46.5789 18.8075 45.4494 18.8075C44.32 18.8075 43.4045 19.7263 43.4045 20.8598C43.4045 21.9933 44.32 22.9123 45.4494 22.9123ZM50.7376 23.5179C50.7376 22.6901 51.3716 22.019 52.1538 22.019C52.9359 22.019 53.57 22.6901 53.57 23.5179C53.57 24.3455 52.9359 25.0167 52.1538 25.0167C51.3716 25.0167 50.7376 24.3455 50.7376 23.5179ZM37.2764 16.6562C36.3749 16.6562 35.5217 16.9524 34.9513 17.7696V16.8713H32.7042V24.8481H34.9789V20.656C34.9789 19.4429 35.7475 18.8489 36.673 18.8489C37.6648 18.8489 38.2351 19.4759 38.2351 20.6395V24.8481H40.4892V19.7752C40.4892 17.9187 39.0945 16.6562 37.2764 16.6562ZM29.4403 16.8708V17.9098C29.8927 17.2866 30.7356 16.8713 31.6521 16.8713V19.1925L31.6463 19.1924L31.6396 19.192L31.633 19.1917L31.6253 19.1915C30.7324 19.1915 29.4455 19.8669 29.4455 21.1235V24.848H27.1297V16.8708H29.4403Z" fill="#17120F"/>
</g>
</svg>
