<svg width="40" height="25" viewBox="0 0 40 25" fill="none" xmlns="http://www.w3.org/2000/svg">
<path d="M25.261 2.71238L15.0291 2.74756L15.3391 21.4795L25.571 21.4444L25.261 2.71238Z" fill="#FF5F00"/>
<path d="M15.7025 12.1511C15.6392 8.34112 17.3459 4.95583 20.0192 2.75998C18.0013 1.17657 15.4716 0.224405 12.7294 0.233797C6.23281 0.256047 1.06545 5.60796 1.17501 12.2008C1.28457 18.7937 6.62921 24.1096 13.1258 24.0873C15.868 24.0779 18.3658 23.1086 20.3308 21.5115C17.5854 19.3673 15.7658 15.961 15.7025 12.1511Z" fill="#EB001B"/>
<path d="M39.425 11.9907C39.5345 18.5835 34.3672 23.9354 27.8706 23.9577C25.1284 23.9671 22.5986 23.0149 20.5808 21.4315C23.2867 19.2356 24.9608 15.8504 24.8975 12.0404C24.8342 8.2305 23.0152 4.8573 20.2692 2.68C22.2342 1.08295 24.732 0.113568 27.4742 0.104176C33.9708 0.0819261 39.316 5.43097 39.425 11.9907Z" fill="#F79E1B"/>
</svg>
