<svg width="374" height="64" viewBox="0 0 374 64" fill="none" xmlns="http://www.w3.org/2000/svg">
<g clip-path="url(#clip0_1417_3942)">
<path d="M259.276 51.3883V50.4155C259.534 50.48 259.798 50.5166 260.064 50.524C261.277 50.524 261.493 49.5259 261.814 48.6024L259.114 40.9408H260.357L262.444 46.8064L264.578 40.9408H265.59L262.538 49.4779C262.381 50.0088 262.113 50.5006 261.751 50.9195C261.554 51.1366 261.308 51.3035 261.034 51.4062C260.76 51.5088 260.465 51.5443 260.174 51.5096C259.871 51.5078 259.569 51.4659 259.276 51.3854V51.3883ZM359.71 44.8507C359.659 44.3414 359.712 43.827 359.87 43.3398C360.027 42.8523 360.283 42.4027 360.621 42.0184C360.96 41.6344 361.373 41.324 361.837 41.1067C362.298 40.8896 362.802 40.7702 363.314 40.756C365.737 40.756 366.782 42.7851 366.721 44.9483H361.059C361.021 45.5566 361.131 46.1654 361.379 46.7216C361.573 47.0819 361.861 47.3822 362.213 47.5904C362.565 47.7987 362.965 47.907 363.375 47.9035C363.839 47.912 364.292 47.7704 364.668 47.4995C365.044 47.2288 365.324 46.8435 365.463 46.4011L366.593 46.6299C366.356 47.3152 365.905 47.907 365.308 48.319C364.714 48.731 364.002 48.9416 363.277 48.92C362.765 48.9158 362.261 48.8038 361.797 48.5915C361.333 48.379 360.917 48.071 360.581 47.6875C360.243 47.304 359.99 46.8536 359.84 46.3656C359.688 45.8779 359.64 45.3635 359.702 44.8563L359.71 44.8507ZM361.12 44.063H365.404C365.441 43.7662 365.415 43.4651 365.327 43.1792C365.239 42.8936 365.092 42.6296 364.895 42.4048C364.698 42.1803 364.455 41.9998 364.183 41.8755C363.911 41.751 363.615 41.6856 363.317 41.6835C362.714 41.715 362.146 41.9814 361.736 42.4256C361.325 42.8699 361.104 43.4568 361.123 44.0614L361.12 44.063ZM352.173 47.5928C351.662 46.775 351.406 45.8243 351.435 44.8606C351.435 42.912 352.4 40.7659 354.655 40.7659C355.108 40.7651 355.554 40.8808 355.948 41.1016C356.345 41.3222 356.676 41.6408 356.913 42.0267V38.2326H358.11V48.7635H357.02V47.3838H356.991C356.785 47.8555 356.441 48.2544 356.007 48.5283C355.572 48.8024 355.063 48.939 354.549 48.92C354.071 48.92 353.602 48.7968 353.186 48.5624C352.771 48.328 352.421 47.9902 352.173 47.5816V47.5928ZM353.184 42.696C352.856 43.3195 352.699 44.0184 352.725 44.7222C352.725 45.9931 353.061 47.9176 354.738 47.9176C355.076 47.9075 355.41 47.8176 355.711 47.655C356.01 47.4923 356.265 47.2616 356.46 46.9814C356.785 46.515 356.948 45.9528 356.916 45.3846V44.139C356.951 43.5931 356.812 43.0502 356.524 42.5859C356.321 42.3136 356.058 42.0931 355.754 41.9414C355.45 41.7899 355.114 41.7118 354.775 41.7134C354.447 41.72 354.127 41.8139 353.848 41.9848C353.568 42.1555 353.338 42.3976 353.181 42.6862L353.184 42.696ZM343.139 46.5494C343.144 46.0878 343.285 45.6376 343.539 45.2534C343.795 44.8688 344.157 44.5664 344.581 44.3819C345.535 44.0214 346.556 43.8646 347.575 43.9216H348.585V43.5843C348.585 42.2174 347.996 41.6963 346.61 41.6963C345.621 41.6963 344.688 42.004 344.477 43.0774L343.357 42.8936C343.571 41.2656 345.293 40.7574 346.719 40.7574C347.151 40.7075 347.588 40.7502 348.001 40.8824C348.417 41.015 348.796 41.2342 349.118 41.5254C349.654 42.2654 349.886 43.1819 349.766 44.087V47.1099C349.745 47.663 349.801 48.2163 349.934 48.7536H348.737L348.596 47.292C348.359 47.8064 347.969 48.2363 347.481 48.5243C346.994 48.8126 346.428 48.9456 345.863 48.9059C345.527 48.9472 345.186 48.9171 344.861 48.8179C344.536 48.7187 344.235 48.5526 343.979 48.3302C343.723 48.1078 343.515 47.8339 343.371 47.5264C343.227 47.219 343.147 46.8848 343.139 46.5451V46.5494ZM344.426 46.6115C344.426 47.58 345.258 47.9768 346.122 47.9768C346.458 47.9678 346.788 47.8918 347.095 47.7536C347.402 47.6155 347.676 47.4179 347.908 47.1723C348.137 46.9267 348.316 46.6382 348.433 46.323C348.551 46.0078 348.604 45.6726 348.59 45.3366V44.8323H347.593C346.365 44.8323 344.426 45.0019 344.426 46.62V46.6115ZM336.253 47.4206L335.808 48.7536H335.219V38.2286H336.413V42.2512H336.474C336.666 41.8038 336.986 41.423 337.394 41.1574C337.799 40.892 338.279 40.7536 338.764 40.7603C339.236 40.7654 339.7 40.8835 340.118 41.1046C340.534 41.3256 340.894 41.6432 341.163 42.031C341.665 42.8472 341.921 43.7902 341.902 44.7478C341.902 46.7246 340.948 48.9075 338.647 48.9075C338.151 48.8998 337.666 48.7582 337.242 48.4974C336.821 48.2366 336.477 47.8664 336.248 47.4262L336.253 47.4206ZM336.421 44.2675V45.2067C336.381 45.8496 336.536 46.4899 336.869 47.0422C337.061 47.3147 337.314 47.5376 337.607 47.6926C337.903 47.8475 338.228 47.9299 338.562 47.9331C340.158 47.9331 340.617 46.2275 340.617 44.9382C340.617 43.6491 340.222 41.7104 338.564 41.7104C337.946 41.7766 337.375 42.0806 336.975 42.5587C336.578 43.0366 336.381 43.6507 336.426 44.2718L336.421 44.2675ZM326.573 46.5408C326.581 46.0792 326.72 45.6294 326.976 45.2448C327.232 44.8603 327.592 44.5579 328.016 44.3734C328.97 44.012 329.991 43.8552 331.009 43.9131H332.022V43.58C332.022 42.2131 331.433 41.692 330.047 41.692C329.058 41.692 328.13 42 327.912 43.0731L326.792 42.8894C327.008 41.2614 328.727 40.7531 330.156 40.7531C330.585 40.703 331.023 40.7454 331.439 40.8779C331.852 41.0104 332.233 41.2296 332.555 41.5214C333.086 42.2622 333.318 43.1779 333.198 44.0827V47.1072C333.174 47.6603 333.233 48.2139 333.369 48.7507H332.174L332.033 47.2894C331.796 47.8035 331.407 48.2334 330.919 48.5216C330.431 48.8099 329.866 48.943 329.3 48.9032C328.965 48.9446 328.621 48.9147 328.295 48.8152C327.97 48.716 327.669 48.5496 327.413 48.327C327.157 48.1043 326.949 47.8299 326.805 47.5222C326.661 47.2142 326.581 46.8795 326.576 46.5395L326.573 46.5408ZM327.861 46.603C327.861 47.5718 328.69 47.9686 329.556 47.9686C329.892 47.9595 330.223 47.8838 330.529 47.7459C330.836 47.6078 331.113 47.4102 331.343 47.1643C331.572 46.9187 331.753 46.6296 331.87 46.3142C331.988 45.9987 332.041 45.663 332.028 45.3267V44.8211H331.031C329.799 44.8211 327.864 44.992 327.864 46.6102L327.861 46.603ZM317.134 45.9096L318.317 45.6499C318.509 46.3107 318.925 46.8843 319.493 47.2736C320.061 47.6632 320.746 47.8448 321.431 47.7878C322.1 47.812 322.759 47.6296 323.318 47.2654C323.518 47.1011 323.681 46.8947 323.793 46.6608C323.905 46.427 323.963 46.1715 323.963 45.9126C323.963 44.852 323.089 44.4243 322.167 44.1928L320.415 43.7691C319.717 43.6616 319.058 43.3691 318.512 42.9219C318.24 42.6758 318.021 42.3747 317.872 42.0387C317.725 41.7027 317.648 41.3392 317.651 40.972C317.651 38.9443 319.402 38.0688 321.226 38.0688C322.047 38.0232 322.857 38.2515 323.534 38.7174C324.209 39.1832 324.713 39.8606 324.961 40.643L323.764 40.9664C323.601 40.4142 323.26 39.9318 322.793 39.5952C322.327 39.259 321.762 39.0875 321.186 39.108C320.189 39.108 318.928 39.6307 318.928 40.7843C318.928 41.9659 319.847 42.2259 320.831 42.4603L322.407 42.8542C323.102 42.9654 323.761 43.2456 324.323 43.6704C324.638 43.9182 324.891 44.2358 325.062 44.5976C325.232 44.9598 325.318 45.3566 325.31 45.7574C325.315 46.2222 325.211 46.6816 325.006 47.0987C324.801 47.5158 324.502 47.8787 324.129 48.1576C323.318 48.7011 322.356 48.9702 321.38 48.9259C320.431 49 319.488 48.7411 318.706 48.1934C317.928 47.6456 317.366 46.8438 317.112 45.9254L317.134 45.9096ZM304.228 44.7915C304.162 44.303 304.202 43.8062 304.34 43.3334C304.479 42.8603 304.713 42.4219 305.033 42.0456C305.351 41.6696 305.745 41.3643 306.188 41.1496C306.63 40.935 307.115 40.8155 307.606 40.799C308.099 40.7824 308.59 40.8691 309.048 41.0536C309.504 41.2382 309.917 41.5163 310.258 41.8702C310.602 42.224 310.869 42.6459 311.037 43.1083C311.207 43.571 311.279 44.0638 311.247 44.5558C311.247 44.6403 311.237 44.7238 311.226 44.807C311.282 45.3187 311.229 45.836 311.072 46.3264C310.914 46.8166 310.658 47.2688 310.317 47.6542C309.976 48.0395 309.56 48.3496 309.091 48.5643C308.624 48.7792 308.118 48.8942 307.603 48.9019C305.268 48.9019 304.228 46.8528 304.228 44.7958V44.7915ZM305.95 42.843C305.673 43.4544 305.54 44.1206 305.556 44.7915C305.532 45.528 305.684 46.2598 306.001 46.9251C306.182 47.2374 306.444 47.4947 306.761 47.6688C307.075 47.843 307.433 47.9272 307.793 47.9126C308.152 47.8982 308.504 47.7851 308.803 47.5862C309.104 47.3872 309.344 47.1096 309.499 46.7838C309.792 46.16 309.928 45.475 309.896 44.7872C309.936 44.0432 309.763 43.3032 309.4 42.6523C309.216 42.3712 308.965 42.1406 308.67 41.9806C308.374 41.8206 308.043 41.7366 307.707 41.7358C307.342 41.7384 306.982 41.843 306.673 42.0374C306.361 42.232 306.113 42.5088 305.95 42.8371V42.843ZM296.743 44.855C296.743 42.8302 297.753 40.7603 300.072 40.7603C300.824 40.74 301.552 41.0096 302.109 41.5131C302.666 42.0166 303.01 42.7152 303.063 43.464L301.962 43.6619C301.96 43.1667 301.765 42.6915 301.418 42.3384C301.072 41.9856 300.6 41.783 300.104 41.7739C298.478 41.7739 298.02 43.4798 298.02 44.7843C298.02 46.0467 298.401 47.8907 300.03 47.8907C301.197 47.8907 301.765 47.0435 301.965 45.9859L303.069 46.1838C303.002 46.9328 302.655 47.6291 302.098 48.1352C301.544 48.6414 300.816 48.9203 300.064 48.9174C297.742 48.9059 296.743 46.891 296.743 44.8536V44.855ZM280.228 46.5494C280.233 46.0878 280.372 45.6376 280.628 45.2534C280.884 44.8688 281.243 44.5664 281.667 44.3819C282.622 44.0214 283.643 43.8646 284.661 43.9216H285.674V43.5843C285.674 42.216 285.085 41.6963 283.699 41.6963C282.71 41.6963 281.777 42.004 281.561 43.0774L280.444 42.8936C280.66 41.2656 282.379 40.7574 283.808 40.7574C284.24 40.707 284.677 40.7496 285.09 40.8819C285.503 41.0144 285.885 41.2339 286.207 41.5254C286.74 42.2659 286.972 43.1822 286.852 44.087V47.1112C286.828 47.6646 286.887 48.2182 287.023 48.755H285.826L285.685 47.2936C285.447 47.808 285.058 48.2382 284.57 48.5264C284.083 48.8147 283.52 48.9478 282.955 48.9075C282.616 48.9486 282.275 48.9184 281.95 48.8187C281.625 48.719 281.323 48.552 281.065 48.3288C280.809 48.1054 280.601 47.8307 280.457 47.5222C280.313 47.2136 280.236 46.8784 280.23 46.5382L280.228 46.5494ZM281.518 46.6115C281.518 47.5787 282.347 47.9768 283.211 47.9768C283.547 47.968 283.877 47.8923 284.184 47.7544C284.493 47.6166 284.768 47.419 284.997 47.1734C285.229 46.9278 285.407 46.639 285.525 46.3235C285.642 46.0083 285.695 45.6728 285.682 45.3366V44.8296H284.685C283.453 44.8296 281.521 44.9947 281.521 46.603L281.518 46.6115ZM372.354 48.7576V38.2299H373.551V48.7592L372.354 48.7576ZM368.67 48.7576V38.2299H369.867V48.7592L368.67 48.7576ZM293.962 48.7576V43.9387C294.007 43.4478 293.935 42.9531 293.749 42.4968C293.602 42.2782 293.402 42.0992 293.17 41.976C292.936 41.8528 292.677 41.7894 292.413 41.791C292.104 41.795 291.797 41.8675 291.52 42.0038C291.24 42.14 290.995 42.3363 290.803 42.579C290.347 43.1816 290.129 43.9291 290.187 44.6814V48.7675H288.99V40.9704H290.121V42.4123H290.147C290.347 41.9307 290.683 41.5184 291.115 41.2262C291.547 40.9339 292.053 40.775 292.576 40.7686C293.018 40.7534 293.458 40.8579 293.848 41.0712C294.234 41.2848 294.559 41.5992 294.783 41.9816C295.108 42.7619 295.234 43.6102 295.151 44.4512V48.7662L293.962 48.7576ZM271.377 48.7576V38.2299H275.352C276.109 38.1574 276.869 38.3302 277.519 38.7227C277.863 38.9472 278.143 39.2547 278.338 39.6168C278.53 39.9787 278.628 40.3838 278.626 40.7942C278.647 41.3446 278.471 41.8848 278.132 42.3182C277.791 42.7515 277.309 43.0496 276.767 43.1592V43.1846C277.279 43.3003 277.749 43.5571 278.119 43.9256C278.492 44.2942 278.754 44.76 278.876 45.2696C278.996 45.7795 278.972 46.3134 278.807 46.8102C278.642 47.3072 278.338 47.7475 277.935 48.0814C277.181 48.6152 276.258 48.8552 275.341 48.7563L271.377 48.7576ZM272.694 47.6395H275.275C275.869 47.6904 276.466 47.5414 276.967 47.2158C277.181 47.0494 277.351 46.8347 277.469 46.5891C277.583 46.3438 277.639 46.0747 277.629 45.8038C277.631 45.4899 277.565 45.1792 277.431 44.8947C277.298 44.6104 277.103 44.3595 276.861 44.1603C276.333 43.8326 275.709 43.6936 275.091 43.7664H272.691L272.694 47.6395ZM272.694 42.7427H274.736C275.403 42.8254 276.074 42.687 276.653 42.3486C276.863 42.1843 277.031 41.9742 277.146 41.735C277.261 41.4955 277.319 41.2331 277.317 40.9678C277.33 40.684 277.263 40.4019 277.125 40.1544C276.986 39.907 276.778 39.7043 276.528 39.5699C276.074 39.352 275.571 39.2616 275.069 39.3086H272.689L272.694 42.7427ZM250.815 48.7606V38.2299H254.792C255.548 38.1582 256.307 38.3304 256.958 38.7214C257.302 38.9459 257.583 39.2536 257.776 39.616C257.968 39.9784 258.067 40.3838 258.061 40.7942C258.083 41.3443 257.908 41.8843 257.568 42.3174C257.229 42.7507 256.746 43.0486 256.206 43.1576V43.1846C256.827 43.299 257.387 43.6304 257.786 44.12C258.185 44.6094 258.397 45.2248 258.384 45.856C258.404 46.2811 258.322 46.7046 258.146 47.0918C257.97 47.479 257.704 47.8187 257.371 48.0827C256.618 48.6174 255.697 48.8582 254.779 48.7606H250.815ZM252.134 47.6422H254.713C255.309 47.6939 255.905 47.5448 256.407 47.2187C256.621 47.0526 256.792 46.8379 256.907 46.5923C257.022 46.3467 257.077 46.0776 257.067 45.8067C257.07 45.4928 257.003 45.1822 256.87 44.8976C256.737 44.6131 256.542 44.3622 256.299 44.163C255.769 43.8355 255.145 43.6963 254.526 43.7678H252.127L252.134 47.6422ZM252.134 42.7454H254.175C254.841 42.8288 255.516 42.6899 256.095 42.3502C256.303 42.1864 256.471 41.9768 256.586 41.7374C256.7 41.4982 256.759 41.2358 256.755 40.9704C256.77 40.6867 256.704 40.4043 256.564 40.1566C256.425 39.9088 256.218 39.7059 255.968 39.5712C255.514 39.3544 255.011 39.2651 254.511 39.3128H252.124L252.134 42.7454Z" fill="#18191F"/>
<path d="M236.422 61.8035C236.388 61.8035 236.353 61.7968 236.321 61.7835C236.289 61.7701 236.259 61.7504 236.235 61.7259C236.21 61.7011 236.191 61.672 236.177 61.6397C236.164 61.6075 236.157 61.5731 236.157 61.5381V25.2653C236.157 25.1945 236.185 25.1266 236.235 25.0765C236.285 25.0265 236.353 24.9984 236.424 24.9984C236.494 24.9984 236.562 25.0265 236.613 25.0765C236.662 25.1266 236.691 25.1945 236.691 25.2653V61.5395C236.69 61.6099 236.662 61.6773 236.613 61.7275C236.563 61.7773 236.495 61.8056 236.425 61.8064L236.422 61.8035Z" fill="#18191F"/>
<path d="M142.773 51.0072C141.132 49.3653 140.211 47.1389 140.211 44.8176C140.211 42.4963 141.132 40.2699 142.773 38.628L148.623 32.7768C148.815 32.5912 149.072 32.4883 149.339 32.4904C149.606 32.4925 149.861 32.5995 150.05 32.7883C150.238 32.9771 150.346 33.2323 150.348 33.4992C150.351 33.7664 150.248 34.0235 150.062 34.2157L144.213 40.0683C142.973 41.3307 142.281 43.0317 142.289 44.8013C142.297 46.5712 143.003 48.2664 144.254 49.5179C145.505 50.7693 147.199 51.476 148.968 51.4837C150.737 51.4917 152.438 50.8003 153.7 49.5597L155.884 47.3755C155.979 47.2805 156.091 47.2053 156.215 47.1539C156.339 47.1027 156.471 47.0763 156.605 47.076C156.739 47.076 156.872 47.1024 156.996 47.1536C157.12 47.2048 157.232 47.28 157.327 47.3747C157.422 47.4696 157.497 47.5821 157.549 47.7059C157.6 47.8296 157.626 47.9624 157.627 48.0965C157.627 48.2307 157.6 48.3632 157.549 48.4872C157.498 48.6112 157.423 48.7237 157.328 48.8184L155.144 51.0056C153.503 52.6461 151.278 53.5677 148.958 53.5677C146.638 53.5677 144.413 52.6461 142.772 51.0056L142.773 51.0072ZM189.586 53.5672C189.449 53.5675 189.313 53.5408 189.186 53.4885C189.059 53.4363 188.943 53.3595 188.846 53.2627C188.749 53.1659 188.671 53.0507 188.618 52.9237C188.565 52.7971 188.538 52.6611 188.537 52.5237C188.537 52.3859 188.564 52.2493 188.617 52.1219C188.67 51.9947 188.747 51.8789 188.844 51.7813C188.942 51.684 189.057 51.6067 189.185 51.5539C189.312 51.5013 189.449 51.4744 189.586 51.4744H200.635C200.912 51.4744 201.177 51.5845 201.373 51.7805C201.569 51.9765 201.679 52.2421 201.679 52.5195C201.679 52.7965 201.569 53.0624 201.373 53.2581C201.177 53.4541 200.912 53.5643 200.635 53.5643L189.586 53.5672ZM82.9527 53.4259C82.7101 53.3197 82.5157 53.1269 82.4078 52.8851C82.3465 52.7619 82.3129 52.6267 82.3097 52.4891C82.3065 52.3512 82.3337 52.2147 82.3894 52.0888L89.0633 34.2565C89.1473 34.0603 89.2891 33.8944 89.4696 33.7808C89.6501 33.6669 89.8609 33.6109 90.0739 33.6197C90.2843 33.6043 90.4935 33.6603 90.6681 33.7784C90.8428 33.8963 90.9726 34.0699 91.0368 34.2707L97.7134 52.1072C97.7665 52.2283 97.7937 52.3589 97.7937 52.4912C97.7937 52.6235 97.7665 52.7541 97.7134 52.8752C97.6132 53.1229 97.4202 53.3216 97.1755 53.4288L97.0726 53.4555L96.827 53.4851C96.6119 53.4997 96.3978 53.4424 96.219 53.3219C96.0401 53.2016 95.9062 53.0251 95.8388 52.8203L90.0854 37.4547L84.3093 52.8216C84.2432 53.0219 84.1139 53.1949 83.9406 53.3152C83.7676 53.4352 83.56 53.4952 83.3494 53.4867L82.9527 53.4259ZM213.142 53.1829C213.049 53.0907 212.975 52.9805 212.925 52.8595C212.875 52.7381 212.85 52.6083 212.85 52.4771V35.5739H207.395C207.258 35.5752 207.123 35.5475 206.999 35.4925C206.874 35.4373 206.763 35.3565 206.672 35.2549C206.489 35.0616 206.388 34.8051 206.39 34.5389C206.389 34.4064 206.415 34.2749 206.465 34.1525C206.516 34.0299 206.59 33.9187 206.684 33.8248C206.777 33.7312 206.889 33.6568 207.011 33.6064C207.134 33.556 207.265 33.5301 207.397 33.5307H220.32C220.453 33.5307 220.584 33.5565 220.706 33.6069C220.828 33.6576 220.939 33.7317 221.033 33.8251C221.127 33.9187 221.201 34.0296 221.251 34.152C221.302 34.2741 221.328 34.4053 221.328 34.5376C221.329 34.804 221.228 35.0605 221.046 35.2549C220.954 35.3544 220.842 35.4339 220.717 35.4883C220.593 35.5427 220.459 35.5709 220.323 35.5712H214.873V52.4715C214.872 52.6715 214.812 52.8667 214.7 53.0323C214.588 53.1981 214.429 53.3269 214.244 53.4024C214.059 53.4779 213.856 53.4968 213.66 53.4568C213.464 53.4168 213.284 53.3195 213.144 53.1773L213.142 53.1829ZM181.275 53.1829C181.182 53.0907 181.108 52.9805 181.058 52.8595C181.008 52.7381 180.982 52.6083 180.983 52.4771V37.596L175.452 45.3888C175.365 45.5296 175.242 45.6448 175.096 45.7227C174.95 45.8008 174.786 45.8392 174.621 45.8336C174.439 45.8469 174.258 45.8112 174.095 45.7301C173.932 45.6493 173.794 45.5259 173.695 45.3733L168.18 37.6213V52.4741C168.18 52.6056 168.154 52.7357 168.103 52.8571C168.052 52.9784 167.977 53.0883 167.884 53.1803C167.69 53.3635 167.434 53.4656 167.168 53.4656C166.902 53.4656 166.646 53.3635 166.452 53.1803C166.351 53.0888 166.271 52.9773 166.216 52.8528C166.161 52.728 166.134 52.5933 166.135 52.4573V34.6363C166.132 34.4773 166.17 34.3203 166.244 34.1795C166.318 34.0387 166.426 33.9187 166.558 33.8301L166.623 33.7667C166.728 33.6816 166.849 33.6197 166.98 33.5856C167.11 33.5515 167.246 33.5459 167.379 33.5688C167.512 33.5917 167.638 33.6429 167.75 33.7192C167.861 33.7952 167.955 33.8941 168.025 34.0093L174.593 43.1099L181.13 34.0136C181.204 33.9035 181.302 33.8109 181.416 33.7424C181.53 33.6741 181.658 33.6317 181.79 33.6184C182.047 33.5752 182.31 33.6253 182.533 33.7595L182.593 33.8075C182.713 33.9107 182.811 34.0368 182.881 34.1784C182.95 34.3203 182.991 34.4744 183 34.6323V52.4544C183 52.5869 182.974 52.7181 182.924 52.8405C182.873 52.9629 182.799 53.0741 182.705 53.1677C182.612 53.2613 182.5 53.3357 182.378 53.3861C182.256 53.4368 182.125 53.4627 181.992 53.4627C181.86 53.4656 181.728 53.4421 181.605 53.3936C181.482 53.3451 181.37 53.2725 181.275 53.1803V53.1829ZM122.163 50.5341C121.204 49.6061 120.442 48.4947 119.921 47.2659C119.401 46.0371 119.132 44.7163 119.132 43.3816C119.132 42.0469 119.401 40.7261 119.921 39.4973C120.442 38.2685 121.204 37.1571 122.163 36.2291C123.982 34.4739 126.371 33.4309 128.894 33.2901C131.418 33.1493 133.908 33.9203 135.91 35.4624C136.126 35.6397 136.266 35.892 136.304 36.1685C136.326 36.4411 136.243 36.7115 136.073 36.9256C135.903 37.1397 135.658 37.2813 135.388 37.3221C135.256 37.3381 135.122 37.3267 134.995 37.2888C134.867 37.2509 134.749 37.1872 134.647 37.1019C133.045 35.848 131.043 35.2168 129.012 35.3251C126.981 35.4333 125.057 36.2736 123.597 37.6907C122.821 38.4243 122.204 39.3107 121.787 40.2939C121.37 41.2773 121.16 42.3365 121.172 43.4048C121.158 44.4699 121.366 45.5261 121.783 46.5061C122.201 47.4859 122.818 48.3677 123.596 49.0952C124.335 49.844 125.216 50.4376 126.188 50.8413C127.159 51.2451 128.201 51.4507 129.253 51.4461C131.192 51.5173 133.09 50.8811 134.595 49.6557C134.829 49.4872 135.12 49.4163 135.406 49.4581C135.541 49.4741 135.67 49.5205 135.783 49.5941C135.897 49.6675 135.993 49.7659 136.063 49.8819C136.151 49.9816 136.217 50.0987 136.256 50.2259C136.296 50.3528 136.308 50.4867 136.293 50.6189C136.281 50.7579 136.24 50.8925 136.172 51.0144C136.104 51.1363 136.011 51.2421 135.899 51.3248C134.064 52.7512 131.8 53.5149 129.476 53.4923C128.12 53.5136 126.773 53.2635 125.515 52.756C124.257 52.2488 123.114 51.4947 122.152 50.5384L122.163 50.5341ZM107.049 53.1829C106.956 53.0907 106.882 52.9808 106.832 52.8595C106.781 52.7384 106.755 52.6083 106.756 52.4771V43.8976L100.361 35.2717C100.275 35.1675 100.212 35.0459 100.175 34.9152C100.139 34.7845 100.131 34.6477 100.151 34.5136C100.171 34.3795 100.22 34.2512 100.292 34.1368C100.365 34.0224 100.462 33.9248 100.575 33.8499C100.679 33.7624 100.8 33.6984 100.931 33.6619C101.063 33.6253 101.2 33.6173 101.334 33.6381C101.47 33.6547 101.602 33.7011 101.718 33.7744C101.834 33.8475 101.932 33.9459 102.006 34.0616L107.735 41.9421L113.503 34.0475C113.576 33.9373 113.673 33.8445 113.787 33.7765C113.9 33.7083 114.028 33.6664 114.16 33.6536C114.3 33.6317 114.443 33.6413 114.579 33.6819C114.715 33.7224 114.84 33.7928 114.946 33.888C115.052 33.9608 115.14 34.056 115.205 34.1667C115.27 34.2776 115.31 34.4013 115.321 34.5291C115.343 34.6635 115.336 34.8008 115.302 34.9323C115.268 35.064 115.207 35.1872 115.123 35.2944L108.76 43.9075V52.4896C108.759 52.6883 108.699 52.8819 108.587 53.0461C108.475 53.2104 108.318 53.3376 108.134 53.412C107.95 53.4864 107.748 53.5045 107.554 53.464C107.359 53.4235 107.181 53.3261 107.043 53.1845L107.049 53.1829ZM66.9611 53.1829C66.8681 53.0907 66.7942 52.9805 66.7441 52.8595C66.694 52.7381 66.6684 52.6083 66.6689 52.4771V44.2211C66.6687 44.0896 66.6948 43.9595 66.7454 43.8384C66.7961 43.7171 66.8702 43.6072 66.964 43.5149C67.0563 43.4216 67.1661 43.3475 67.2871 43.2971C67.4084 43.2467 67.5385 43.2211 67.6697 43.2213H73.1128C73.6137 43.2189 74.1093 43.116 74.5702 42.9184C75.0309 42.7211 75.4473 42.4333 75.7946 42.072C76.1556 41.7256 76.4414 41.3088 76.6341 40.8472C76.8268 40.3856 76.9228 39.8893 76.9153 39.3891C76.9228 38.8891 76.8271 38.3925 76.6344 37.9309C76.4416 37.4693 76.1556 37.0525 75.7946 36.7064C75.4489 36.3451 75.0322 36.0589 74.5705 35.8664C74.109 35.6736 73.6126 35.5784 73.1128 35.5867H67.6684C67.5321 35.588 67.3972 35.5603 67.2727 35.5056C67.1483 35.4509 67.0366 35.3701 66.9456 35.2691C66.7622 35.0755 66.6612 34.8184 66.6633 34.5517C66.6617 34.4853 66.6673 34.4192 66.6801 34.3539C66.6817 34.3461 66.6817 34.3379 66.6801 34.3299C66.7215 34.144 66.8156 33.9739 66.9512 33.84C66.988 33.8051 67.0278 33.7728 67.0699 33.744C67.2394 33.6152 67.4468 33.5459 67.6598 33.5464H73.1013C73.8696 33.5357 74.6321 33.6824 75.3414 33.9779C76.0508 34.2731 76.6922 34.7107 77.2259 35.2632C77.7762 35.7981 78.2115 36.4392 78.5055 37.148C78.7998 37.8565 78.9465 38.6176 78.9369 39.3851C78.9459 40.152 78.799 40.9131 78.505 41.6216C78.2109 42.3304 77.7756 42.9715 77.2259 43.5067C76.693 44.056 76.054 44.4909 75.3476 44.7848C74.6411 45.0789 73.8822 45.2259 73.1168 45.2165L68.7059 45.2688V52.4896C68.7075 52.6259 68.68 52.7605 68.6254 52.8853C68.571 53.0099 68.4905 53.1216 68.3895 53.2128C68.1951 53.3957 67.9379 53.4968 67.671 53.4952C67.5396 53.4947 67.4092 53.468 67.2879 53.4165C67.1669 53.3653 67.0571 53.2901 66.9654 53.1957L66.9611 53.1829ZM89.3654 50.9576C89.0974 50.9581 88.8402 50.8525 88.6498 50.664C88.4624 50.4768 88.3563 50.2229 88.3547 49.9581C88.3558 49.8245 88.3835 49.6925 88.4358 49.5696C88.488 49.4467 88.5643 49.3355 88.6597 49.2421C88.8466 49.0536 89.0998 48.9456 89.3654 48.9413H90.6951C90.8265 48.9421 90.9566 48.9691 91.0776 49.02C91.1986 49.0712 91.3085 49.1456 91.401 49.2392C91.4951 49.3312 91.5697 49.4411 91.6209 49.5621C91.6721 49.6835 91.6985 49.8136 91.6988 49.9453C91.699 50.0776 91.6729 50.2088 91.6225 50.3312C91.5721 50.4536 91.498 50.5648 91.4045 50.6587C91.3111 50.7523 91.2 50.8267 91.0779 50.8776C90.9555 50.9285 90.8246 50.9547 90.6924 50.9549L89.3654 50.9576ZM150.924 48.3117C150.733 48.1203 150.626 47.8611 150.626 47.5907C150.626 47.3205 150.733 47.0613 150.924 46.8699L153.45 44.3467C153.642 44.1589 153.9 44.0547 154.169 44.056C154.437 44.0576 154.694 44.1648 154.884 44.3547C155.073 44.5445 155.181 44.8013 155.182 45.0699C155.184 45.3384 155.079 45.5965 154.892 45.7883L152.369 48.3117C152.275 48.4064 152.163 48.4819 152.04 48.5331C151.916 48.5845 151.784 48.6109 151.651 48.6109C151.517 48.6109 151.385 48.5845 151.261 48.5331C151.138 48.4819 151.026 48.4064 150.932 48.3117H150.924ZM158.041 46.6611C157.85 46.4696 157.743 46.2104 157.743 45.9403C157.743 45.6699 157.85 45.4107 158.041 45.2195L158.532 44.7365C158.626 44.64 158.739 44.5632 158.863 44.5107C158.987 44.4581 159.12 44.4307 159.255 44.4299C159.39 44.4291 159.523 44.4552 159.648 44.5064C159.773 44.5576 159.886 44.6331 159.981 44.7285C160.076 44.8237 160.152 44.9371 160.203 45.0619C160.255 45.1864 160.28 45.32 160.28 45.4549C160.279 45.5899 160.251 45.7232 160.199 45.8472C160.146 45.9715 160.07 46.0837 159.973 46.1781L159.489 46.6611C159.395 46.7555 159.282 46.8301 159.159 46.8808C159.035 46.9315 158.903 46.9571 158.769 46.956C158.5 46.9544 158.242 46.8469 158.052 46.6568L158.041 46.6611ZM149.375 44.3877C149.28 44.2933 149.205 44.1811 149.153 44.0573C149.101 43.9336 149.075 43.8008 149.075 43.6669C149.075 43.5328 149.101 43.4 149.153 43.2765C149.205 43.1528 149.28 43.0403 149.375 42.9461L152.843 39.4752C152.935 39.3685 153.047 39.2816 153.173 39.2203C153.3 39.1589 153.437 39.1245 153.578 39.1189C153.718 39.1133 153.858 39.1368 153.989 39.188C154.12 39.2389 154.239 39.3165 154.338 39.416C154.438 39.5152 154.516 39.6339 154.567 39.7648C154.618 39.8955 154.642 40.0355 154.637 40.176C154.631 40.3163 154.597 40.4541 154.536 40.5808C154.475 40.7072 154.388 40.8197 154.282 40.9112L150.815 44.3805C150.721 44.4752 150.609 44.5504 150.486 44.6016C150.363 44.6528 150.231 44.6792 150.097 44.6792C149.964 44.6792 149.832 44.6528 149.708 44.6016C149.585 44.5504 149.473 44.4752 149.38 44.3805L149.375 44.3877ZM189.554 44.5965C189.416 44.5973 189.28 44.5707 189.153 44.5184C189.026 44.4661 188.911 44.3896 188.813 44.2925C188.716 44.1955 188.639 44.0803 188.586 43.9536C188.533 43.8267 188.507 43.6907 188.507 43.5531C188.506 43.4155 188.533 43.2792 188.586 43.1517C188.638 43.0245 188.716 42.9088 188.813 42.8115C188.91 42.7139 189.026 42.6368 189.153 42.584C189.28 42.5312 189.416 42.504 189.554 42.504H200.596C200.875 42.504 201.142 42.6147 201.338 42.8115C201.535 43.008 201.645 43.2749 201.645 43.5531C201.645 43.8309 201.535 44.0968 201.338 44.2931C201.142 44.4893 200.876 44.5995 200.598 44.5995H189.552L189.554 44.5965ZM155.599 43.6083C155.409 43.4165 155.302 43.1573 155.302 42.8875C155.302 42.6173 155.409 42.3584 155.599 42.1667L159.177 38.5872C159.271 38.4907 159.384 38.4141 159.508 38.3613C159.632 38.3088 159.765 38.2813 159.9 38.2805C160.035 38.2797 160.168 38.3059 160.293 38.3571C160.418 38.4083 160.531 38.4837 160.626 38.5792C160.722 38.6744 160.797 38.7877 160.848 38.9125C160.899 39.0373 160.926 39.1709 160.925 39.3056C160.924 39.4405 160.896 39.5739 160.844 39.6979C160.791 39.8221 160.715 39.9347 160.618 40.0288L157.043 43.6083C156.949 43.7037 156.837 43.7797 156.713 43.8315C156.59 43.8835 156.458 43.9101 156.323 43.9101C156.19 43.9101 156.057 43.8835 155.933 43.8315C155.81 43.7797 155.698 43.7037 155.605 43.6083H155.599ZM145.16 43.1184C144.969 42.9269 144.862 42.6677 144.862 42.3973C144.862 42.1272 144.969 41.868 145.16 41.6765L157.952 28.8824C158.144 28.6912 158.404 28.5843 158.675 28.5851C158.946 28.5856 159.206 28.6939 159.397 28.8861C159.588 29.0781 159.695 29.3384 159.694 29.6093C159.693 29.8803 159.585 30.14 159.393 30.3312L146.603 43.1253C146.509 43.22 146.397 43.2952 146.273 43.3461C146.15 43.3973 146.018 43.4235 145.884 43.4232C145.616 43.4208 145.36 43.3133 145.17 43.124L145.16 43.1184ZM155.007 38.7411C154.816 38.5496 154.709 38.2904 154.709 38.0203C154.709 37.7501 154.816 37.4907 155.007 37.2995L155.737 36.5693C155.831 36.4731 155.944 36.3963 156.068 36.3437C156.192 36.2909 156.325 36.2635 156.46 36.2629C156.595 36.2621 156.728 36.288 156.853 36.3395C156.978 36.3907 157.091 36.4661 157.186 36.5613C157.282 36.6568 157.357 36.7701 157.408 36.8947C157.459 37.0195 157.486 37.1531 157.485 37.288C157.484 37.4227 157.456 37.556 157.404 37.6803C157.351 37.8043 157.275 37.9168 157.178 38.0112L156.449 38.7397C156.355 38.8341 156.243 38.9088 156.12 38.96C155.997 39.0112 155.866 39.0373 155.733 39.0373C155.6 39.0373 155.468 39.0112 155.345 38.96C155.222 38.9088 155.111 38.8341 155.017 38.7397L155.007 38.7411ZM157.905 35.8437C157.81 35.7493 157.735 35.6371 157.683 35.5133C157.632 35.3896 157.605 35.2568 157.605 35.1229C157.605 34.9888 157.632 34.856 157.683 34.7323C157.735 34.6088 157.81 34.4963 157.905 34.4021L164.377 27.9208C164.47 27.8195 164.583 27.7376 164.709 27.6808C164.834 27.624 164.97 27.5933 165.108 27.5904C165.245 27.5875 165.382 27.6123 165.51 27.6637C165.638 27.7152 165.754 27.792 165.851 27.8893C165.949 27.9869 166.025 28.1032 166.077 28.2309C166.128 28.3589 166.153 28.496 166.15 28.6336C166.147 28.7715 166.116 28.9072 166.059 29.0328C166.002 29.1581 165.92 29.2709 165.818 29.364L159.345 35.8408C159.251 35.9357 159.139 36.0112 159.015 36.0624C158.891 36.1139 158.759 36.1403 158.625 36.1403C158.357 36.136 158.1 36.0269 157.911 35.8365L157.905 35.8437ZM189.56 35.6149C189.283 35.6149 189.017 35.5048 188.821 35.3088C188.625 35.1128 188.515 34.8472 188.515 34.5701C188.515 34.2928 188.625 34.0272 188.821 33.8312C189.017 33.6352 189.283 33.5251 189.56 33.5251H200.606C200.744 33.5248 200.88 33.5515 201.007 33.6037C201.134 33.656 201.25 33.7328 201.347 33.8296C201.444 33.9264 201.522 34.0416 201.574 34.1685C201.627 34.2952 201.655 34.4312 201.655 34.5685C201.655 34.7061 201.628 34.8424 201.575 34.9693C201.522 35.0965 201.445 35.212 201.347 35.3091C201.25 35.4061 201.134 35.4832 201.007 35.5357C200.88 35.5883 200.744 35.6152 200.606 35.6149H189.56ZM141.425 32.3672C141.252 32.1912 141.155 31.9539 141.155 31.7067C141.156 31.4595 141.254 31.2224 141.428 31.0472C141.602 30.872 141.839 30.7728 142.086 30.7712C142.333 30.7696 142.571 30.8656 142.748 31.0387C142.839 31.1232 142.913 31.2253 142.964 31.3387C143.015 31.4523 143.043 31.5749 143.047 31.6995C143.049 31.824 143.028 31.9477 142.982 32.0637C142.936 32.1795 142.868 32.2851 142.78 32.3739C142.693 32.4629 142.589 32.5333 142.474 32.5811C142.359 32.6291 142.236 32.6533 142.111 32.6525C141.986 32.6517 141.863 32.6259 141.749 32.5768C141.634 32.5275 141.531 32.4557 141.445 32.3659L141.425 32.3672ZM145.687 28.0973C145.525 27.9357 145.414 27.7299 145.37 27.5053C145.325 27.2811 145.348 27.0483 145.435 26.8368C145.523 26.6254 145.671 26.4446 145.861 26.3175C146.051 26.1903 146.275 26.1224 146.503 26.1224C146.732 26.1224 146.956 26.1903 147.146 26.3175C147.336 26.4446 147.484 26.6254 147.572 26.8368C147.659 27.0483 147.682 27.2811 147.637 27.5053C147.592 27.7299 147.482 27.9357 147.32 28.0973C147.214 28.2061 147.086 28.292 146.946 28.3501C146.805 28.4085 146.655 28.4379 146.503 28.4363C146.201 28.432 145.914 28.3091 145.702 28.0947L145.687 28.0973Z" fill="#18191F"/>
<path d="M76.1456 15.6622C76.1629 15.2875 76.093 14.9139 75.9414 14.5708C75.7897 14.2277 75.5604 13.9246 75.2717 13.6854C74.3024 13.026 73.2163 12.5578 72.0716 12.3059C70.8715 12.0178 69.727 11.5341 68.6839 10.8741C68.2102 10.5655 67.8217 10.1423 67.5549 9.64378C67.2878 9.14524 67.151 8.5874 67.1566 8.02188C67.1462 7.47628 67.2697 6.93644 67.5154 6.44938C67.7615 5.96234 68.123 5.54287 68.5682 5.22754C69.6201 4.47802 70.8915 4.09999 72.1817 4.153C73.1028 4.13732 74.0153 4.33394 74.8481 4.72767C75.5999 5.07852 76.2362 5.63578 76.6833 6.33452C77.1135 7.02127 77.338 7.81714 77.3297 8.62762H76.0595C76.0781 8.16524 75.9941 7.70444 75.8134 7.27842C75.6329 6.85239 75.3599 6.47167 75.0147 6.16367C74.2235 5.51063 73.2161 5.17855 72.1916 5.23316C71.2204 5.18306 70.2597 5.45234 69.4562 5.99988C69.1341 6.2238 68.8721 6.52362 68.6932 6.87282C68.5146 7.22202 68.4245 7.60986 68.4312 8.0021C68.4232 8.36223 68.5015 8.71903 68.6594 9.04276C68.8172 9.3665 69.0502 9.64778 69.3389 9.86311C70.2269 10.4687 71.2218 10.9 72.2708 11.1339C73.3299 11.3925 74.3549 11.776 75.3239 12.2762C75.9526 12.6116 76.4892 13.0965 76.8864 13.6882C77.2463 14.2738 77.4286 14.9511 77.4116 15.6382C77.4257 16.1908 77.3044 16.7384 77.0583 17.2333C76.8123 17.7283 76.4489 18.1555 76 18.4777C74.9118 19.2344 73.6045 19.6111 72.2806 19.5495C71.2839 19.5607 70.2954 19.3685 69.3757 18.9847C68.5666 18.6677 67.8684 18.1197 67.3683 17.4088C66.9066 16.7157 66.6677 15.8978 66.6837 15.0649H67.9542C67.9353 15.5459 68.0329 16.0243 68.2387 16.4594C68.4445 16.8945 68.7521 17.2735 69.1357 17.5642C70.0536 18.2152 71.1639 18.5375 72.2876 18.4792C73.2811 18.528 74.2643 18.2584 75.0939 17.7096C75.4271 17.4839 75.6988 17.1783 75.884 16.8207C76.0691 16.4631 76.1618 16.0648 76.1538 15.6622H76.1456ZM84.1673 19.5495C83.2647 19.5578 82.3778 19.3132 81.6068 18.8435C80.8452 18.3732 80.2312 17.6979 79.8353 16.8949C79.4005 16.0249 79.1814 15.0631 79.1958 14.0907V13.6501C79.1801 12.6507 79.3936 11.661 79.8196 10.7569C80.2022 9.93767 80.8009 9.2385 81.5516 8.73492C82.2621 8.25402 83.1007 7.99818 83.9583 8.00068C84.5637 7.97319 85.1673 8.083 85.7242 8.32188C86.2811 8.56079 86.7767 8.9226 87.1739 9.38023C88.0155 10.4572 88.4356 11.8041 88.3554 13.1686V13.8577H80.4056V14.0935C80.3629 15.2441 80.7476 16.3698 81.4855 17.2535C81.8158 17.6565 82.2333 17.9793 82.7065 18.198C83.1794 18.4166 83.6957 18.5253 84.2167 18.5159C84.817 18.5271 85.4123 18.4036 85.9585 18.1544C86.5029 17.884 86.9753 17.4887 87.3378 17.0008L88.1098 17.591C87.6758 18.2284 87.0854 18.7435 86.3949 19.0864C85.7045 19.4295 84.9372 19.5889 84.1673 19.5495ZM83.9415 9.05546C83.5014 9.04788 83.0647 9.13484 82.6609 9.31047C82.2573 9.4861 81.8958 9.74628 81.6012 10.0735C80.9302 10.8364 80.5237 11.7957 80.4424 12.8085H87.1176V12.6673C87.1253 11.7163 86.802 10.7923 86.2027 10.0537C85.9263 9.72698 85.5794 9.46687 85.1884 9.29279C84.7975 9.11874 84.3721 9.03519 83.9442 9.04839L83.9415 9.05546ZM94.8544 18.5159C95.6414 18.543 96.4113 18.2831 97.0209 17.7844C97.3019 17.556 97.5312 17.2704 97.6935 16.9467C97.8559 16.6229 97.9476 16.2684 97.9625 15.9065H99.1454C99.1142 16.5738 98.8924 17.2182 98.5061 17.7633C98.1105 18.3274 97.5754 18.7793 96.9532 19.075C96.3049 19.3908 95.5923 19.5522 94.8712 19.5466C94.2149 19.5751 93.5607 19.4528 92.959 19.1889C92.3573 18.925 91.8239 18.5267 91.4003 18.0245C90.496 16.8575 90.0415 15.4041 90.1199 13.9297V13.5597C90.097 12.5613 90.2897 11.5697 90.6845 10.6524C91.0297 9.85375 91.6021 9.17418 92.3304 8.69823C93.0838 8.2282 93.9582 7.98871 94.8459 8.00916C95.9525 7.96919 97.0313 8.35935 97.8567 9.09783C98.252 9.46532 98.5687 9.90946 98.7871 10.4032C99.0054 10.8969 99.1211 11.4299 99.127 11.9698H97.9441C97.9241 11.1705 97.5885 10.4117 97.0111 9.8589C96.4222 9.31732 95.644 9.02924 94.8443 9.05687C94.3492 9.03394 93.8561 9.13124 93.4066 9.3405C92.9574 9.54975 92.5653 9.86471 92.264 10.2585C91.593 11.2529 91.2689 12.4412 91.3424 13.6388V13.9989C91.2721 15.1767 91.5954 16.3445 92.2614 17.3185C92.5671 17.71 92.963 18.0218 93.4151 18.2276C93.8673 18.4333 94.3626 18.5269 94.8584 18.5003L94.8544 18.5159ZM108.75 17.9369C108.345 18.4853 107.807 18.9213 107.187 19.2035C106.567 19.4857 105.884 19.6048 105.205 19.5495C104.707 19.5833 104.207 19.5086 103.74 19.3304C103.274 19.1522 102.851 18.8748 102.502 18.5173C101.825 17.6453 101.489 16.5566 101.556 15.4547V8.2125H102.776V15.3064C102.776 17.4253 103.633 18.4848 105.348 18.4848C106.083 18.5733 106.825 18.4003 107.446 17.996C108.066 17.5917 108.524 16.9819 108.74 16.2736V8.2125H109.975V19.3518H108.779L108.75 17.9369ZM118.303 9.27007C118.028 9.21983 117.749 9.19524 117.469 9.19666C116.765 9.17447 116.076 9.40036 115.521 9.83487C114.954 10.3213 114.555 10.9755 114.383 11.7029V19.3518H113.161V8.2125H114.375L114.396 9.98455C114.658 9.37674 115.097 8.86252 115.657 8.50962C116.217 8.15674 116.87 7.98175 117.531 8.00775C117.809 7.99836 118.087 8.04642 118.346 8.14895L118.303 9.27007ZM124.562 19.5495C123.659 19.558 122.772 19.3134 122.001 18.8435C121.235 18.375 120.617 17.6995 120.217 16.8949C119.783 16.0266 119.562 15.0671 119.574 14.0963V13.6557C119.558 12.6565 119.771 11.6669 120.196 10.7626C120.578 9.94258 121.177 9.24319 121.929 8.74058C122.641 8.25679 123.482 7.9985 124.342 7.99927C124.947 7.97242 125.55 8.0825 126.107 8.32138C126.663 8.56023 127.159 8.9217 127.556 9.37882C128.398 10.4557 128.819 11.8035 128.737 13.1686V13.8577H120.796V14.0935C120.755 15.2444 121.142 16.3696 121.881 17.2521C122.212 17.6549 122.63 17.9776 123.103 18.1959C123.576 18.4143 124.092 18.5227 124.613 18.513C125.211 18.5248 125.805 18.4013 126.349 18.1516C126.893 17.8816 127.366 17.4868 127.728 16.9994L128.5 17.5896C128.067 18.2269 127.477 18.7419 126.788 19.0851C126.098 19.4284 125.331 19.5883 124.562 19.5495ZM124.335 9.05404C123.896 9.04722 123.46 9.13455 123.058 9.31015C122.655 9.48575 122.295 9.74556 122.001 10.0721C121.329 10.8353 120.923 11.796 120.844 12.81H127.517V12.6688C127.525 11.7171 127.202 10.7922 126.602 10.0537C126.325 9.72692 125.979 9.46684 125.588 9.293C125.196 9.11916 124.771 9.03602 124.343 9.0498L124.335 9.05404ZM147.148 14.6724C147.072 16.0534 146.465 17.3514 145.454 18.2956C144.38 19.1725 143.019 19.6198 141.633 19.5509C140.588 19.5712 139.561 19.2808 138.681 18.7164C137.807 18.1362 137.121 17.3152 136.704 16.3527C136.222 15.252 135.982 14.0609 135.998 12.8594V10.9193C135.976 9.69996 136.216 8.49007 136.704 7.37236C137.122 6.39948 137.817 5.57108 138.702 4.99031C139.606 4.42335 140.655 4.13191 141.722 4.15159C143.112 4.0749 144.478 4.54346 145.528 5.45767C146.498 6.41183 147.076 7.69407 147.148 9.05263H145.878C145.88 8.52391 145.772 8.00055 145.561 7.51583C145.349 7.03114 145.04 6.59567 144.651 6.23711C144.261 5.87887 143.801 5.60596 143.299 5.43578C142.797 5.26559 142.266 5.20188 141.738 5.24871C141.115 5.22743 140.496 5.35431 139.931 5.61892C139.367 5.88351 138.874 6.27831 138.491 6.77084C137.622 7.99551 137.196 9.48042 137.284 10.98V12.8156C137.209 14.2875 137.625 15.7428 138.466 16.9528C138.832 17.4472 139.313 17.8453 139.867 18.1127C140.421 18.38 141.032 18.5087 141.646 18.4876C142.729 18.5678 143.801 18.2269 144.639 17.5359C145.376 16.7597 145.816 15.7491 145.884 14.6809L147.148 14.6724ZM151.152 10.0933C151.529 9.45492 152.064 8.92404 152.704 8.55138C153.331 8.18612 154.045 7.99548 154.771 7.99927C155.262 7.96114 155.754 8.03172 156.215 8.20599C156.675 8.38026 157.091 8.65391 157.433 9.00746C158.079 9.87788 158.393 10.9505 158.318 12.032V19.3518H157.096V12.032C157.152 11.2403 156.93 10.454 156.469 9.80804C156.212 9.54652 155.899 9.3454 155.555 9.21916C155.211 9.09292 154.842 9.04474 154.477 9.07804C153.743 9.07106 153.029 9.32412 152.463 9.79252C151.855 10.2999 151.403 10.9691 151.16 11.7227V19.3475H149.938V3.54724H151.157L151.152 10.0933ZM165.798 19.5537C164.895 19.562 164.007 19.3174 163.236 18.8477C162.469 18.378 161.851 17.701 161.452 16.8949C161.017 16.0274 160.797 15.0681 160.81 14.0977V13.6572C160.794 12.6579 161.007 11.6683 161.432 10.764C161.814 9.94399 162.413 9.2446 163.165 8.74199C163.875 8.25879 164.714 8.00004 165.572 7.99927C166.177 7.97242 166.78 8.0825 167.337 8.32138C167.893 8.56023 168.389 8.9217 168.786 9.37882C169.634 10.4537 170.06 11.8016 169.983 13.1686V13.8577H162.043V14.0935C162.002 15.2444 162.389 16.3696 163.129 17.2521C163.459 17.6549 163.877 17.9776 164.35 18.1959C164.823 18.4143 165.339 18.5227 165.86 18.513C166.46 18.5257 167.056 18.4021 167.602 18.1516C168.145 17.8812 168.617 17.4865 168.978 16.9994L169.75 17.5896C169.317 18.2263 168.727 18.7408 168.037 19.0838C167.348 19.4267 166.581 19.5866 165.812 19.548L165.798 19.5537ZM165.571 9.05828C165.13 9.05063 164.694 9.13754 164.29 9.31316C163.886 9.48879 163.525 9.74903 163.23 10.0763C162.56 10.8404 162.154 11.8007 162.074 12.8142H168.759V12.6815C168.771 11.7289 168.449 10.8023 167.849 10.0622C167.573 9.73487 167.226 9.47428 166.835 9.29994C166.444 9.12559 166.018 9.04202 165.591 9.05546L165.571 9.05828ZM176.485 18.5187C177.267 18.542 178.032 18.2817 178.637 17.7859C178.919 17.5572 179.148 17.2714 179.31 16.9474C179.473 16.6234 179.564 16.2686 179.579 15.9065H180.762C180.733 16.5735 180.513 17.2182 180.13 17.7647C179.734 18.3283 179.199 18.7802 178.577 19.0764C177.928 19.3923 177.215 19.5542 176.493 19.5495C175.835 19.5786 175.179 19.4563 174.576 19.1919C173.972 18.9276 173.437 18.5281 173.013 18.0245C172.11 16.8568 171.655 15.4039 171.732 13.9297V13.5597C171.712 12.5592 171.908 11.566 172.307 10.6482C172.655 9.85002 173.23 9.17194 173.961 8.69823C174.713 8.2282 175.587 7.98868 176.474 8.00916C177.583 7.96772 178.665 8.35794 179.493 9.09783C179.889 9.46506 180.205 9.90914 180.424 10.4029C180.642 10.8967 180.758 11.4299 180.763 11.9698H179.582C179.559 11.1694 179.22 10.4105 178.64 9.8589C178.051 9.31756 177.273 9.02996 176.474 9.05828C175.977 9.03412 175.482 9.13098 175.031 9.34052C174.58 9.5501 174.187 9.86607 173.885 10.2613C173.218 11.2564 172.898 12.4435 172.974 13.6388V13.9989C172.903 15.1768 173.227 16.3448 173.893 17.3185C174.199 17.7097 174.595 18.0214 175.047 18.2271C175.499 18.4328 175.995 18.5265 176.491 18.5003L176.485 18.5187ZM185.875 13.7433L184.463 15.1002V19.3518H183.235V3.54724H184.467V13.6628L185.625 12.3991L189.899 8.2125H191.452L186.717 12.906L191.846 19.3518H190.379L185.875 13.7433ZM192.869 13.6204C192.855 12.6212 193.069 11.6319 193.497 10.7287C193.882 9.90335 194.498 9.20671 195.269 8.72223C196.036 8.243 196.926 7.99452 197.831 8.00634C198.508 7.98247 199.183 8.1094 199.805 8.37802C200.427 8.64663 200.983 9.05018 201.43 9.55954C202.391 10.7173 202.884 12.1936 202.809 13.6967V13.9523C202.825 14.9565 202.612 15.9512 202.187 16.861C201.808 17.6838 201.197 18.3778 200.429 18.8576C199.653 19.333 198.758 19.5779 197.847 19.5636C197.171 19.5868 196.498 19.4595 195.876 19.1909C195.255 18.9223 194.7 18.5191 194.254 18.0104C193.291 16.8535 192.799 15.3765 192.875 13.8732L192.869 13.6204ZM194.101 13.9593C194.053 15.1387 194.419 16.2976 195.136 17.2352C195.455 17.6467 195.867 17.9771 196.338 18.1996C196.809 18.4222 197.326 18.5305 197.846 18.5159C198.365 18.5299 198.88 18.4214 199.349 18.1991C199.818 17.9768 200.229 17.6471 200.546 17.2366C201.27 16.263 201.632 15.0679 201.571 13.8563V13.6191C201.581 12.816 201.42 12.0199 201.1 11.2836C200.821 10.6222 200.36 10.0533 199.771 9.64284C199.196 9.24994 198.514 9.04383 197.818 9.05263C197.301 9.04124 196.788 9.1522 196.322 9.3765C195.856 9.60076 195.45 9.93199 195.136 10.3432C194.41 11.3159 194.045 12.5111 194.104 13.7235L194.101 13.9593ZM212.504 17.9355C212.099 18.4847 211.561 18.9213 210.941 19.204C210.32 19.4867 209.638 19.6061 208.958 19.5509C208.459 19.5852 207.959 19.5104 207.492 19.3316C207.025 19.1529 206.602 18.8745 206.253 18.5159C205.578 17.6439 205.244 16.5553 205.315 15.4547V8.2125H206.537V15.3064C206.537 17.4253 207.394 18.4848 209.109 18.4848C209.843 18.5723 210.585 18.3987 211.204 17.9945C211.823 17.5903 212.281 16.9811 212.497 16.2736V8.2125H213.725V19.3518H212.531L212.504 17.9355ZM218.83 5.36874V8.21674H221.134V9.22348H218.829V16.6365C218.794 17.12 218.911 17.6023 219.164 18.016C219.299 18.1763 219.471 18.3012 219.666 18.3802C219.86 18.4591 220.071 18.4897 220.28 18.4693C220.611 18.4562 220.941 18.4223 221.268 18.3676L221.319 19.3758C220.893 19.5073 220.448 19.5665 220.002 19.5509C219.66 19.5805 219.316 19.5295 218.997 19.402C218.679 19.2745 218.394 19.074 218.167 18.8166C217.741 18.1778 217.539 17.4154 217.593 16.6492V9.22631H215.56V8.21815H217.607V5.36591L218.83 5.36874Z" fill="#18191F"/>
<path d="M25.0075 61.7128C20.5899 59.3573 16.4519 56.5112 12.6718 53.2283C9.37443 50.4216 6.515 47.1379 4.18836 43.4853C1.74775 39.7192 0.412161 35.344 0.333374 30.8565V9.26131L25.0061 0L49.6802 9.26131V30.8579C49.6007 35.3453 48.2651 39.7205 45.8251 43.4867C43.4986 47.1389 40.6398 50.4227 37.3432 53.2296C33.5631 56.5125 29.4251 59.3587 25.0075 61.7144V61.7128ZM16.5381 29.4968C16.1355 29.4963 15.7367 29.5755 15.3649 29.7299C14.993 29.8843 14.6554 30.1107 14.3714 30.3963C13.7964 30.9731 13.4736 31.7547 13.4736 32.5693C13.4736 33.3837 13.7964 34.1653 14.3714 34.7424L19.8327 40.2067C20.1166 40.492 20.4541 40.7181 20.8256 40.8725C21.1972 41.0269 21.5957 41.1064 21.998 41.1061C22.4007 41.1067 22.7994 41.0277 23.1713 40.8733C23.5432 40.7189 23.8809 40.4923 24.1648 40.2067L26.7056 37.6651L38.4597 25.9046C38.7457 25.6209 38.9726 25.2833 39.1272 24.9112C39.2818 24.5391 39.361 24.1401 39.3602 23.7371C39.3602 23.3346 39.2805 22.936 39.1259 22.5643C38.9715 22.1926 38.7449 21.8551 38.4597 21.5711C38.1758 21.2853 37.8383 21.0586 37.4664 20.904C37.0945 20.7493 36.6957 20.6699 36.2929 20.6703C35.8906 20.6704 35.4921 20.7501 35.1204 20.9047C34.7488 21.0593 34.4113 21.2858 34.1277 21.5711L22.0051 33.6989L18.7133 30.4032C18.4288 30.1157 18.09 29.8875 17.7166 29.7317C17.3432 29.5763 16.9426 29.4963 16.5381 29.4968Z" fill="#006DFF"/>
</g>
<defs>
<clipPath id="clip0_1417_3942">
<rect width="373.217" height="64" fill="white" transform="translate(0.333374)"/>
</clipPath>
</defs>
</svg>
