<svg width="58" height="38" viewBox="0 0 58 38" fill="none" xmlns="http://www.w3.org/2000/svg">
<mask id="mask0_42_2807" style="mask-type:alpha" maskUnits="userSpaceOnUse" x="0" y="0" width="58" height="38">
<rect x="0.787354" y="0.383026" width="56.4254" height="37.6169" fill="white"/>
</mask>
<g mask="url(#mask0_42_2807)">
</g>
<g clip-path="url(#clip0_42_2807)">
<path d="M22.1146 15.2637H19.1322C18.9282 15.2637 18.7546 15.4211 18.7228 15.6351L17.5166 23.7562C17.4926 23.9165 17.6094 24.0609 17.7625 24.0609H19.1863C19.3904 24.0609 19.564 23.9035 19.5958 23.6891L19.9211 21.4987C19.9525 21.2843 20.1265 21.1268 20.3302 21.1268H21.2743C23.2388 21.1268 24.3727 20.1173 24.6688 18.1168C24.8022 17.2415 24.6744 16.5538 24.2885 16.0722C23.8646 15.5434 23.1128 15.2637 22.1146 15.2637ZM22.4587 18.2297C22.2956 19.3662 21.4779 19.3662 20.6873 19.3662H20.2373L20.553 17.2438C20.5718 17.1156 20.6764 17.0211 20.7985 17.0211H21.0048C21.5434 17.0211 22.0514 17.0211 22.3139 17.3471C22.4705 17.5416 22.5184 17.8306 22.4587 18.2297Z" fill="#253B80"/>
<path d="M31.0296 18.1932H29.6014C29.4797 18.1932 29.3746 18.2876 29.3559 18.4159L29.2927 18.8401L29.1928 18.6864C28.8836 18.2098 28.1942 18.0505 27.506 18.0505C25.9278 18.0505 24.5799 19.3199 24.3174 21.1004C24.1809 21.9886 24.3749 22.8379 24.8494 23.4302C25.2846 23.9748 25.9073 24.2017 26.6482 24.2017C27.9199 24.2017 28.625 23.3334 28.625 23.3334L28.5613 23.7548C28.5374 23.916 28.6542 24.0605 28.8064 24.0605H30.0929C30.2974 24.0605 30.4701 23.903 30.5023 23.6886L31.2742 18.4979C31.2986 18.3381 31.1822 18.1932 31.0296 18.1932ZM29.0389 21.1449C28.9011 22.0113 28.2535 22.593 27.4275 22.593C27.0128 22.593 26.6814 22.4517 26.4686 22.1841C26.2575 21.9182 26.1773 21.5399 26.2444 21.1185C26.3731 20.2595 27.0316 19.6588 27.8449 19.6588C28.2504 19.6588 28.5801 19.8019 28.7973 20.0719C29.0149 20.3447 29.1012 20.7253 29.0389 21.1449Z" fill="#253B80"/>
<path d="M38.6357 18.1932H37.2006C37.0636 18.1932 36.935 18.2654 36.8574 18.3863L34.878 21.4825L34.039 18.5072C33.9862 18.321 33.8244 18.1932 33.6413 18.1932H32.231C32.0596 18.1932 31.9405 18.371 31.995 18.5424L33.5758 23.4687L32.0897 25.6966C31.9728 25.8721 32.0905 26.1134 32.2925 26.1134H33.7259C33.8619 26.1134 33.9893 26.043 34.0664 25.9244L38.8398 18.6077C38.9541 18.4326 38.8368 18.1932 38.6357 18.1932Z" fill="#253B80"/>
<path d="M43.3873 15.2637H40.4045C40.2009 15.2637 40.0273 15.4211 39.9955 15.6351L38.7893 23.7562C38.7653 23.9165 38.8822 24.0609 39.0343 24.0609H40.565C40.7072 24.0609 40.8288 23.9507 40.8511 23.8007L41.1934 21.4987C41.2248 21.2843 41.3988 21.1268 41.6024 21.1268H42.5461C44.5111 21.1268 45.6445 20.1173 45.941 18.1168C46.0749 17.2415 45.9463 16.5538 45.5603 16.0722C45.1369 15.5434 44.3855 15.2637 43.3873 15.2637ZM43.7314 18.2297C43.5687 19.3662 42.7511 19.3662 41.96 19.3662H41.5104L41.8266 17.2438C41.8453 17.1156 41.9491 17.0211 42.0717 17.0211H42.2779C42.8161 17.0211 43.3245 17.0211 43.5871 17.3471C43.7436 17.5416 43.7911 17.8306 43.7314 18.2297Z" fill="#179BD7"/>
<path d="M52.3019 18.1932H50.8746C50.752 18.1932 50.6478 18.2876 50.6295 18.4159L50.5663 18.8401L50.466 18.6864C50.1568 18.2098 49.4678 18.0505 48.7796 18.0505C47.2015 18.0505 45.854 19.3199 45.5914 21.1004C45.4554 21.9886 45.6486 22.8379 46.123 23.4302C46.5591 23.9748 47.181 24.2017 47.9219 24.2017C49.1935 24.2017 49.8986 23.3334 49.8986 23.3334L49.835 23.7548C49.811 23.916 49.9278 24.0605 50.0809 24.0605H51.3669C51.5706 24.0605 51.7441 23.903 51.776 23.6886L52.5483 18.4979C52.5718 18.3381 52.455 18.1932 52.3019 18.1932ZM50.3112 21.1449C50.1742 22.0113 49.5258 22.593 48.6998 22.593C48.286 22.593 47.9537 22.4517 47.7409 22.1841C47.5298 21.9182 47.4505 21.5399 47.5167 21.1185C47.6463 20.2595 48.3039 19.6588 49.1172 19.6588C49.5227 19.6588 49.8524 19.8019 50.0696 20.0719C50.2881 20.3447 50.3744 20.7253 50.3112 21.1449Z" fill="#179BD7"/>
<path d="M53.9855 15.4865L52.7614 23.7563C52.7374 23.9165 52.8543 24.061 53.0065 24.061H54.2371C54.4417 24.061 54.6152 23.9035 54.6466 23.6891L55.8537 15.5684C55.8777 15.4082 55.7608 15.2632 55.6086 15.2632H54.2306C54.1089 15.2637 54.0043 15.3582 53.9855 15.4865Z" fill="#179BD7"/>
<path d="M5.13144 25.6392L5.35951 24.1008L4.85147 24.0883H2.42554L4.11144 12.7366C4.11667 12.7024 4.13368 12.6704 4.15853 12.6477C4.18339 12.625 4.21522 12.6125 4.24837 12.6125H8.33883C9.69679 12.6125 10.6339 12.9126 11.1232 13.5049C11.3526 13.7827 11.4987 14.0731 11.5693 14.3926C11.6435 14.7279 11.6448 15.1285 11.5724 15.617L11.5672 15.6527V15.9657L11.7965 16.1037C11.9897 16.2126 12.1432 16.3371 12.261 16.4798C12.4572 16.7173 12.5841 17.0193 12.6377 17.3772C12.6931 17.7454 12.6748 18.1835 12.5841 18.6794C12.4794 19.2499 12.3102 19.7468 12.0817 20.1534C11.8715 20.5281 11.6038 20.8388 11.2859 21.0796C10.9824 21.3084 10.6217 21.482 10.214 21.5932C9.8189 21.7025 9.36842 21.7576 8.87434 21.7576H8.556C8.32836 21.7576 8.10727 21.8446 7.93371 22.0007C7.75971 22.16 7.64458 22.3776 7.60926 22.6157L7.58528 22.7541L7.18234 25.4655L7.16402 25.5651C7.15922 25.5966 7.15094 25.6123 7.13873 25.623C7.12783 25.6327 7.11213 25.6392 7.09686 25.6392H5.13144Z" fill="#253B80"/>
<path d="M12.0138 15.6888C12.0016 15.7717 11.9877 15.8564 11.972 15.9435C11.4325 18.8846 9.58704 19.9006 7.23001 19.9006H6.02991C5.74165 19.9006 5.49876 20.1229 5.45384 20.4248L4.8394 24.563L4.6654 25.736C4.63618 25.9342 4.78009 26.1129 4.96848 26.1129H7.097C7.34906 26.1129 7.56318 25.9184 7.60286 25.6545L7.62379 25.5396L8.02455 22.8389L8.05028 22.6907C8.08953 22.4258 8.30408 22.2313 8.55614 22.2313H8.87448C10.9367 22.2313 12.5511 21.3422 13.0229 18.7693C13.2201 17.6944 13.118 16.797 12.5965 16.1658C12.4386 15.9755 12.2428 15.8176 12.0138 15.6888Z" fill="#179BD7"/>
<path d="M11.4496 15.4499C11.3672 15.4244 11.2821 15.4012 11.1949 15.3804C11.1072 15.36 11.0174 15.342 10.925 15.3262C10.6014 15.2707 10.2469 15.2443 9.86702 15.2443H6.66094C6.58201 15.2443 6.507 15.2632 6.43984 15.2975C6.29201 15.373 6.18212 15.5217 6.15552 15.7036L5.47348 20.291L5.45386 20.4248C5.49877 20.1229 5.74167 19.9006 6.02992 19.9006H7.23003C9.58706 19.9006 11.4326 18.8841 11.972 15.9435C11.9881 15.8565 12.0017 15.7717 12.0139 15.6888C11.8774 15.612 11.7295 15.5462 11.5704 15.4902C11.5311 15.4763 11.4906 15.4628 11.4496 15.4499Z" fill="#222D65"/>
<path d="M6.15539 15.7036C6.18199 15.5216 6.29189 15.373 6.43972 15.298C6.50731 15.2637 6.58188 15.2447 6.66081 15.2447H9.8669C10.2467 15.2447 10.6013 15.2711 10.9248 15.3267C11.0173 15.3424 11.1071 15.3605 11.1948 15.3809C11.282 15.4017 11.367 15.4249 11.4494 15.4503C11.4904 15.4633 11.531 15.4767 11.5707 15.4901C11.7298 15.5462 11.8777 15.6124 12.0142 15.6888C12.1747 14.6019 12.0129 13.8619 11.4595 13.1918C10.8494 12.4541 9.74828 12.1383 8.3393 12.1383H4.24884C3.96102 12.1383 3.71551 12.3606 3.67102 12.663L1.96725 24.1314C1.93367 24.3583 2.09851 24.563 2.31393 24.563H4.83929L5.47336 20.291L6.15539 15.7036Z" fill="#253B80"/>
</g>
<defs>
<clipPath id="clip0_42_2807">
<rect width="54.0744" height="15.2819" fill="white" transform="translate(1.96289 12.1383)"/>
</clipPath>
</defs>
</svg>
