<svg width="57" height="38" viewBox="0 0 57 38" fill="none" xmlns="http://www.w3.org/2000/svg">
<mask id="mask0_42_2965" style="mask-type:alpha" maskUnits="userSpaceOnUse" x="0" y="0" width="57" height="38">
<rect x="0.287354" y="0.383026" width="56.4254" height="37.6169" fill="white"/>
</mask>
<g mask="url(#mask0_42_2965)">
<path fill-rule="evenodd" clip-rule="evenodd" d="M37.3504 11.9063C37.3504 10.7363 38.2772 9.78726 39.4183 9.78726C40.5615 9.78726 41.4876 10.7363 41.4876 11.9063C41.4876 13.077 40.5615 14.024 39.4183 14.024C38.2772 14.024 37.3504 13.077 37.3504 11.9063ZM43.2962 11.5197L47.4905 10.751V27.2431H43.2962V11.5197ZM49.4225 11.5197V27.2431H53.6195V10.751L49.4225 11.5197ZM37.3215 15.1808V27.2435H41.5178V15.1808H37.3215ZM29.1075 20.4575C29.1075 16.9145 31.0773 15.132 34.9544 15.0039C34.9544 15.0039 35.6547 14.9764 36.068 15.0666V18.5924C33.6103 18.6791 33.3387 19.5883 33.3387 21.7087V27.2435H29.1075V20.4575ZM23.5485 15.2234L23.5484 15.2235C23.3982 15.6274 22.7144 17.4656 21.1799 19.3663V10.751L16.8492 11.6285V27.2431H21.1799V22.4158C22.434 24.3429 23.0536 27.2431 23.0536 27.2431H28.2399C27.7271 25.0586 25.4831 21.0318 25.4831 21.0318C27.4979 18.4151 28.3817 15.6285 28.5228 15.1667H23.5698C23.5645 15.1803 23.5574 15.1993 23.5485 15.2234ZM7.82829 15.6374C7.82829 16.7696 9.05681 16.8515 9.58707 16.8866C13.4763 17.1536 15.7942 19.1034 15.7942 22.1034C15.7942 24.7503 13.7216 27.42 9.09781 27.42C6.95394 27.42 5.1246 27.2039 3.50225 26.7668V22.9141C4.58561 23.3704 6.37059 23.8494 8.20935 23.8494C9.88748 23.8494 10.8855 23.2809 10.8855 22.3147C10.8855 21.1489 9.67516 21.0729 9.21103 21.0438L9.20601 21.0435C3.78989 20.6656 3.20654 17.3842 3.20654 15.9912C3.20654 13.572 4.88266 10.751 9.61328 10.751C12.3573 10.751 13.8365 11.1894 15.1107 11.6457L15.1746 11.6656V15.4075L15.1268 15.3938C14.6154 15.1722 14.0146 14.9547 14.0146 14.9547C12.9353 14.6236 11.4258 14.2713 10.2591 14.2713C9.5958 14.2713 7.82829 14.2713 7.82829 15.6374Z" fill="#862165"/>
</g>
</svg>
